<svg xmlns="http://www.w3.org/2000/svg" width="32" height="38.045" fill="none"><path fill="#FFF" fill-rule="evenodd" d="M24.0011.7417a8.1303 8.1303 0 0 1-2.0797 5.3229 7.0538 7.0538 0 0 1-5.8173 2.9086 5.5017 5.5017 0 0 1 0-.7126 8.2893 8.2893 0 0 1 2.196-5.3665A8.509 8.509 0 0 1 20.9906.8726 8.2174 8.2174 0 0 1 24.0593 0c.014.2519.014.5044 0 .7563l-.0582-.0146Zm7.3299 28.8539a20.3553 20.3553 0 0 1-2.0506 3.6648 19.1327 19.1327 0 0 1-2.6178 3.2578 5.1625 5.1625 0 0 1-3.3886 1.4543 8.6372 8.6372 0 0 1-3.1268-.7417 8.9122 8.9122 0 0 0-3.3595-.7126 9.335 9.335 0 0 0-3.4613.7417 9.4389 9.4389 0 0 1-2.9814.7853 4.8735 4.8735 0 0 1-1.885-.4138 4.874 4.874 0 0 1-1.5763-1.1132 20.359 20.359 0 0 1-2.7487-3.3014 22.5995 22.5995 0 0 1-2.9087-5.8173 21.1605 21.1605 0 0 1-1.2216-6.879 12.5074 12.5074 0 0 1 1.658-6.5736c.8109-1.485 2-2.7293 3.4467-3.6067a9.3662 9.3662 0 0 1 4.683-1.3235 11.1973 11.1973 0 0 1 3.6212.8436c.9267.4121 1.9053.6959 2.9087.8435a17.4557 17.4557 0 0 0 3.185-.989 10.5143 10.5143 0 0 1 4.363-.7707 9.2197 9.2197 0 0 1 7.1989 3.7957 7.9695 7.9695 0 0 0-4.2466 7.2717 8.0287 8.0287 0 0 0 2.6323 6.05A8.9874 8.9874 0 0 0 32 27.7921c-.2182.6109-.4363 1.1926-.669 1.7598v.0437Z"/></svg>