<svg width="19.5" height="13.875" viewBox="0 0 19.5 13.875" fill="none" xmlns="http://www.w3.org/2000/svg">
  <g>
    <path d="M0 0.75C0 0.335786 0.335786 0 0.75 0L10.22 0C10.6342 0 10.97 0.335786 10.97 0.75C10.97 1.16421 10.6342 1.5 10.22 1.5L0.75 1.5C0.335786 1.5 0 1.16421 0 0.75L0 0.75Z" fill="#545454" fill-rule="evenodd" />
    <path d="M0 0.75C0 0.335786 0.335786 0 0.75 0L18.75 0C19.1642 0 19.5 0.335786 19.5 0.75C19.5 1.16421 19.1642 1.5 18.75 1.5L0.75 1.5C0.335786 1.5 0 1.16421 0 0.75L0 0.75Z" fill="#545454" fill-rule="evenodd" transform="translate(0 6.188)" />
    <path d="M0 0.75C0 0.335786 0.335786 0 0.75 0L10.22 0C10.6342 0 10.97 0.335786 10.97 0.75C10.97 1.16421 10.6342 1.5 10.22 1.5L0.75 1.5C0.335786 1.5 0 1.16421 0 0.75L0 0.75Z" fill="#545454" fill-rule="evenodd" transform="translate(0 12.375)" />
  </g>
</svg>