<svg width="13.435" height="13.435" viewBox="0 0 13.435 13.435" fill="none" xmlns="http://www.w3.org/2000/svg">
  <g transform="translate(-0 0)">
    <path d="M0 0.75C0 0.335786 0.335786 0 0.75 0L16.75 0C17.1642 0 17.5 0.335786 17.5 0.75C17.5 1.16422 17.1642 1.5 16.75 1.5L0.75 1.5C0.335786 1.5 0 1.16421 0 0.75L0 0.75Z" fill="#545454" fill-rule="evenodd" transform="matrix(0.707 0.707 -0.707 0.707 1.061 0)" />
    <path d="M0.75 0C1.16422 0 1.5 0.335787 1.5 0.75L1.5 16.75C1.5 17.1642 1.16422 17.5 0.75 17.5C0.335785 17.5 0 17.1642 -9.53674e-07 16.75L0 0.75C0 0.335787 0.335786 9.53674e-07 0.75 0L0.75 0Z" fill="#545454" fill-rule="evenodd" transform="matrix(0.707 0.707 -0.707 0.707 12.374 0)" />
  </g>
</svg>