<svg width="26" height="26" viewBox="0 0 26 26" fill="none" xmlns="http://www.w3.org/2000/svg">
  <g>
    <path d="M3.81 -0.179487C1.08644 -0.179487 -1.10615 2.02476 -1.10615 4.73667C-1.10615 7.39175 0.986917 9.5545 3.62574 9.64317C3.66078 9.64436 3.69586 9.64334 3.73077 9.64021C3.78331 9.63539 3.83922 9.63615 3.87247 9.63945C3.90989 9.64317 3.94751 9.64444 3.98509 9.64317C6.62453 9.5545 8.71507 7.39191 8.72615 4.74019L8.72615 4.73667C8.72615 2.02352 6.52315 -0.179487 3.81 -0.179487L3.81 -0.179487ZM0.586154 4.73667C0.586154 2.95691 2.02356 1.51282 3.81 1.51282C5.58803 1.51282 7.03305 2.95736 7.03385 4.7352C7.02557 6.46698 5.67579 7.86876 3.97414 7.94996C3.86375 7.94243 3.7483 7.94282 3.63857 7.95005C1.93479 7.86976 0.586154 6.4667 0.586154 4.73667L0.586154 4.73667Z" fill="#545454" fill-rule="evenodd" transform="translate(7.19 1.167)" />
    <path d="M11.4187 -0.643438L11.4174 -0.644284C9.99302 -1.59516 8.15864 -2.04407 6.36771 -2.04407C4.57598 -2.04407 2.73779 -1.5948 1.30532 -0.645019L1.30222 -0.642939C0.017787 0.216887 -0.736987 1.43196 -0.736987 2.75406C-0.736987 4.07671 0.0184107 5.2901 1.30422 6.14553C2.73272 7.10065 4.56914 7.55216 6.36083 7.55216C8.15329 7.55216 9.99055 7.10026 11.4193 6.1443L11.4195 6.14419C12.7039 5.28437 13.4587 4.06929 13.4587 2.74719C13.4587 1.42498 12.7037 0.211956 11.4187 -0.643438L11.4187 -0.643438ZM0.95532 2.75406C0.95532 2.12642 1.30918 1.38964 2.24151 0.764765C3.33896 0.0374756 4.83241 -0.351763 6.36771 -0.351763C7.90374 -0.351763 9.39173 0.0378065 10.4788 0.763857L10.4801 0.764695C11.4126 1.38509 11.7664 2.11962 11.7664 2.74719C11.7664 3.37525 11.412 4.11263 10.478 4.7379C9.38599 5.46852 7.89579 5.85989 6.36083 5.85989C4.82579 5.85989 3.33553 5.46848 2.24346 4.73778L2.24161 4.73655C1.30909 4.11616 0.95532 3.38162 0.95532 2.75406L0.95532 2.75406Z" fill="#545454" fill-rule="evenodd" transform="translate(4.79 13.286)" />
  </g>
</svg>