<svg  viewBox="0 0 16.133 14.227" fill="none" stroke="#1F1F1F" xmlns="http://www.w3.org/2000/svg">
  <path d="M0 4.24467C0 1.89523 1.89217 0 4.21866 0C5.59718 0 6.81738 0.665464 7.58496 1.69906C7.69816 1.85148 7.8768 1.94134 8.06664 1.94134C8.25648 1.94134 8.4352 1.85148 8.5484 1.69906C9.3156 0.66596 10.5442 0 11.9146 0C14.2412 0 16.1334 1.89523 16.1334 4.24467C16.1334 7.07842 14.8248 9.34744 13.1818 11.0308C11.5315 12.7217 9.58075 13.7812 8.41018 14.1809L8.41016 14.1808L8.40432 14.1829C8.3412 14.2051 8.2188 14.2266 8.06664 14.2266C7.91456 14.2266 7.79216 14.2051 7.72904 14.1829L7.7232 14.1809C6.55262 13.7812 4.60179 12.7217 2.95155 11.0308C1.30854 9.34744 0 7.07842 0 4.24467L0 4.24467Z" transform="translate(-0 0)" />
</svg>