<?xml version="1.0" encoding="utf-8"?>
<svg width="60" height="50.32" viewBox="0 0 60 50.32" fill="none" xmlns="http://www.w3.org/2000/svg">
  <g>
    <g>
      <path d="M2.4392 0L37.4801 0C39.0912 0 40 1.12086 40 3.10928L40 31.947C40 33.9371 39.0912 35.0629 37.4841 35.0629C36.6563 35.0629 35.8284 35.0631 35.0005 35.0633C31.6888 35.0641 28.3766 35.0649 25.0652 35.053C24.7113 35.0513 24.6336 35.1358 24.7368 35.5646C24.8588 36.0712 24.9325 36.5977 24.9888 37.1225C25.0197 37.414 25.1229 37.4603 25.3293 37.457C26.0811 37.4438 26.8342 37.4487 27.5874 37.4536L27.5879 37.4536C28.1629 37.4569 28.3854 37.7351 28.3894 38.452C28.3897 38.5182 28.3899 38.5844 28.3902 38.6506C28.3928 39.2815 28.3954 39.9123 28.3881 40.5431C28.3814 41.1275 28.1374 41.4338 27.6629 41.4338C22.5547 41.4371 17.4477 41.4371 12.3407 41.4338C11.8663 41.4338 11.6237 41.1275 11.6169 40.5414C11.6089 39.8278 11.6116 39.1143 11.6156 38.4007C11.6196 37.7484 11.8515 37.4587 12.3756 37.4536C13.1423 37.4471 13.9077 37.4454 14.6744 37.457C14.8808 37.4603 14.9827 37.4123 15.0149 37.1225C15.0779 36.5662 15.165 36.01 15.2829 35.4669C15.3567 35.1242 15.2963 35.053 15.0175 35.0547C13.606 35.0646 12.1945 35.0633 10.783 35.0621C10.3126 35.0617 9.84221 35.0613 9.3718 35.0613C8.60102 35.0613 7.83038 35.0615 7.05979 35.0616C5.51877 35.062 3.97793 35.0624 2.43652 35.0613C0.939287 35.0596 0.0010053 33.9007 0.0010053 32.0464C-0.0003351 22.3676 -0.0003351 12.6888 0.0010053 3.00993C0.0010053 1.15728 0.939287 0 2.4392 0L2.4392 0ZM19.9838 28.6888C21.003 28.6888 22.0223 28.6887 23.0416 28.6886C28.1362 28.6881 33.2315 28.6877 38.3259 28.6987C38.6395 28.6987 38.7173 28.6043 38.7173 28.2152C38.709 20.7783 38.7091 13.34 38.7092 5.90266L38.7092 5.89603C38.7092 4.97095 38.7092 4.04589 38.7092 3.12085C38.7092 2.00661 38.3754 1.59436 37.4707 1.59436L2.52101 1.59436C1.6216 1.59436 1.29052 2.00827 1.29052 3.13079C1.29052 4.60425 1.29064 6.07767 1.29077 7.55104C1.29135 14.4265 1.29194 21.301 1.2798 28.1755C1.27846 28.6375 1.39105 28.697 1.72347 28.697C6.7017 28.6876 11.6799 28.6881 16.6582 28.6886L16.6629 28.6886C17.7698 28.6887 18.8768 28.6888 19.9838 28.6888L19.9838 28.6888ZM19.9944 30.2831C18.8328 30.2831 17.6711 30.2831 16.5094 30.283C11.8671 30.2827 7.22488 30.2825 2.58258 30.2864C2.45966 30.2864 2.32454 30.2673 2.18883 30.2481C1.85692 30.2012 1.52144 30.1538 1.35209 30.3841C1.20455 30.5851 1.23518 30.9888 1.26554 31.3888C1.27821 31.5557 1.29083 31.7219 1.29043 31.8726C1.28775 33.0894 1.60006 33.4702 2.59196 33.4702L37.4157 33.4702C37.4478 33.4702 37.48 33.4706 37.5123 33.4711L37.5124 33.4711C37.5879 33.4721 37.6636 33.4732 37.7387 33.4686C38.3017 33.4338 38.6877 32.9602 38.7065 32.26C38.7115 32.062 38.7089 31.8631 38.7064 31.6642C38.7027 31.3808 38.6991 31.0974 38.7172 30.8162C38.7427 30.4006 38.6662 30.2682 38.295 30.2699C33.268 30.2849 28.243 30.2842 23.2175 30.2834L23.2144 30.2834C22.1411 30.2833 21.0678 30.2831 19.9944 30.2831L19.9944 30.2831ZM19.9904 37.4553C20.2781 37.4553 20.5657 37.455 20.8533 37.4547L20.8534 37.4547C21.7207 37.4538 22.5876 37.4528 23.4553 37.4603C23.6671 37.462 23.7381 37.414 23.6845 37.1325C23.5706 36.5365 23.4741 35.9355 23.391 35.3311C23.3615 35.1225 23.2958 35.0596 23.1296 35.0596C21.0479 35.0646 18.9663 35.0662 16.8847 35.058C16.6997 35.058 16.634 35.1308 16.6032 35.3593C16.5281 35.9305 16.4491 36.505 16.3257 37.0629C16.2426 37.4387 16.3565 37.462 16.6059 37.4603C17.4344 37.4518 18.2629 37.4531 19.091 37.4544L19.0915 37.4544C19.3912 37.4548 19.6909 37.4553 19.9904 37.4553L19.9904 37.4553ZM19.9999 39.8596C20.4462 39.8596 20.8926 39.8595 21.3391 39.8594C23.1369 39.8588 24.9352 39.8583 26.7327 39.8664C26.9807 39.8681 27.1094 39.8529 27.1107 39.4548C27.1107 39.0532 26.9794 39.0431 26.7327 39.0431C22.2437 39.0499 17.7547 39.0499 13.2657 39.0431C13.0177 39.0431 12.889 39.0566 12.8877 39.4548C12.8877 39.8563 13.019 39.8664 13.2657 39.8664C15.0642 39.8583 16.8628 39.8588 18.6607 39.8594C19.1072 39.8595 19.5535 39.8596 19.9999 39.8596L19.9999 39.8596Z" fill="#7F8E76" fill-rule="evenodd" />
      <path d="M1.28821 0.00429344C1.35352 0.00429344 1.41883 0.0032196 1.4841 0.00214577C1.63317 -0.000307083 1.78204 -0.00275803 1.93027 0.0076046C2.31228 0.0340958 2.57098 0.353634 2.57768 0.787409C2.58438 1.21953 2.32703 1.57384 1.95171 1.59205C1.51072 1.61357 1.06705 1.61357 0.626051 1.59205C0.250738 1.57384 -0.00527954 1.22284 8.2016e-05 0.789064C0.00544357 0.355289 0.264143 0.0340958 0.644817 0.0076046C0.79401 -0.00275993 0.943205 -0.000307083 1.0924 0.00214767C1.15767 0.0032196 1.22294 0.00429344 1.28821 0.00429344L1.28821 0.00429344Z" fill="#7F8E76" fill-rule="evenodd" transform="translate(18.71 31.075)" />
    </g>
  </g>
</svg>