<svg width="60" height="60.403" viewBox="0 0 60 60.403" fill="none" xmlns="http://www.w3.org/2000/svg">
  <g>
    <g>
      <path d="M25.4266 20.5382C25.4266 20.0955 25.426 19.6527 25.4254 19.2099C25.4237 17.9555 25.422 16.7012 25.434 15.4469C25.4369 15.0788 25.4149 14.94 24.9838 15.0366C22.3157 15.6355 19.6138 15.996 16.8929 16.2117C16.6407 16.2313 16.5777 16.3158 16.5821 16.5617C16.5958 17.1925 16.5916 17.8232 16.5874 18.4539C16.5871 18.499 16.5868 18.5441 16.5865 18.5892C16.5806 19.4038 16.1203 19.9559 15.3448 19.9755C14.018 20.0072 12.6883 20.0057 11.3601 19.977C10.6227 19.9619 10.1492 19.4144 10.1257 18.6163C10.1066 17.9556 10.111 17.2948 10.1272 16.6341C10.133 16.3882 10.0715 16.3098 9.82076 16.2902C7.05583 16.0744 4.30849 15.7199 1.60371 15.0833C1.2622 15.0024 1.27479 15.1736 1.28784 15.351C1.29037 15.3854 1.29291 15.4199 1.29291 15.4529C1.29071 17.6934 1.29099 19.9347 1.29126 22.1756C1.29136 22.9237 1.29145 23.6717 1.29145 24.4197C1.29145 25.1755 1.10819 25.4726 0.641994 25.4802C0.158207 25.4877 -0.0338392 25.1815 -0.0338392 24.3971C-0.0338392 23.7274 -0.0340414 23.0577 -0.0342436 22.388C-0.0349846 19.9335 -0.0357256 17.479 -0.0265131 15.0245C-0.0250463 14.7303 -0.10568 14.584 -0.368093 14.4467C-1.52625 13.8388 -2.24314 12.8688 -2.35896 11.5262C-2.47477 10.1957 -2.48797 8.85153 -2.35602 7.52254C-2.16398 5.59762 -0.643706 4.24296 1.24453 4.2324C2.90847 4.22335 4.57243 4.22033 6.23636 4.23994C6.56623 4.24447 6.66736 4.15999 6.63949 3.82208C6.6087 3.44947 6.62043 3.07083 6.63949 2.69671C6.71576 1.17006 7.75516 0.0507273 9.24023 0.0296077C11.9832 -0.0096143 14.729 -0.00961403 17.472 0.0280995C19.0113 0.049219 20.0742 1.23795 20.0874 2.81739C20.0881 2.90963 20.0899 3.00197 20.0917 3.09431C20.097 3.36289 20.1022 3.63145 20.0815 3.8975C20.058 4.19167 20.1694 4.23843 20.426 4.23692C22.0753 4.22486 23.7246 4.22787 25.3738 4.2324C27.5509 4.23692 29.099 5.81184 29.1195 8.04445C29.1283 9.0049 29.1239 9.96535 29.1195 10.9273L29.1195 10.9288C29.1136 12.5399 28.4041 13.712 27.0055 14.4211C26.7457 14.5533 26.7458 14.7184 26.746 14.9359L26.746 14.9536C26.7475 18.4685 26.7475 21.9819 26.7475 25.4968C26.7475 25.5339 26.7478 25.5708 26.7482 25.6077C26.749 25.706 26.7499 25.8039 26.7446 25.9025C26.7196 26.3039 26.4778 26.5558 26.1127 26.5678C25.733 26.5799 25.4618 26.322 25.434 25.9025C25.4236 25.7433 25.4257 25.5833 25.4278 25.4236C25.4287 25.3579 25.4296 25.2923 25.4296 25.2268C25.426 23.9754 25.4263 22.726 25.4265 21.4762C25.4266 21.1636 25.4266 20.8509 25.4266 20.5382L25.4266 20.5382ZM13.3626 4.23084C13.7608 4.23084 14.159 4.2305 14.557 4.23017C15.8502 4.22908 17.143 4.22799 18.4365 4.23837C18.7063 4.23988 18.7957 4.17502 18.7722 3.89292C18.7538 3.68622 18.7582 3.47733 18.7625 3.26829L18.7625 3.26827C18.7644 3.17676 18.7663 3.08523 18.7663 2.99383C18.7649 1.8926 18.2635 1.37668 17.186 1.37517C16.156 1.37315 15.1259 1.37382 14.0955 1.3745C13.5801 1.37483 13.0646 1.37517 12.5489 1.37517C12.2402 1.37517 11.9315 1.37451 11.6229 1.37386L11.6228 1.37386C10.8819 1.3723 10.1409 1.37073 9.39993 1.37819C8.48806 1.38723 7.97053 1.9288 7.95439 2.86259C7.95222 2.9852 7.95469 3.10801 7.95715 3.23073C7.96133 3.43868 7.96551 3.64633 7.94706 3.85219C7.91779 4.17954 8.03653 4.2429 8.33266 4.23988C9.61045 4.22724 10.8882 4.22861 12.1654 4.22998C12.5645 4.23041 12.9636 4.23084 13.3626 4.23084L13.3626 4.23084ZM13.3436 5.58403L13.3436 5.66398C12.201 5.66398 11.0583 5.66373 9.91547 5.66349C7.05835 5.66287 4.20092 5.66226 1.3442 5.66549C-0.0954375 5.667 -1.07034 6.66565 -1.08794 8.14856C-1.09966 9.10951 -1.0982 10.0719 -1.08794 11.0329C-1.07621 12.3302 -0.378384 13.2142 0.842815 13.5129C3.54323 14.1736 6.28173 14.5885 9.04814 14.8027C9.14556 14.8102 9.25034 14.8283 9.35548 14.8465C9.6111 14.8907 9.86895 14.9352 10.0289 14.8284C10.2026 14.7113 10.1715 14.451 10.1404 14.1902L10.1404 14.1902C10.1266 14.0745 10.1128 13.9587 10.1169 13.8553C10.1491 12.9774 10.6403 12.4464 11.4832 12.4388C12.7381 12.4282 13.9945 12.4298 15.2494 12.4388C16.0704 12.4448 16.5703 12.9729 16.585 13.8251C16.5858 13.8711 16.5874 13.9174 16.589 13.9638L16.589 13.9638C16.5937 14.0985 16.5984 14.234 16.5821 14.3652C16.5395 14.7137 16.6436 14.8148 17.0043 14.7876C20.0213 14.5583 22.9959 14.0409 25.9485 13.3892C27.0949 13.1358 27.7869 12.1854 27.7957 10.9786C27.803 10.0025 27.803 9.025 27.7957 8.04896C27.7854 6.61135 26.7944 5.58855 25.387 5.58554C22.5771 5.58131 19.7666 5.58226 16.9563 5.58321C15.752 5.58362 14.5477 5.58403 13.3436 5.58403L13.3436 5.58403ZM15.267 16.2479C15.267 16.0505 15.2655 15.853 15.264 15.6556C15.2603 15.1782 15.2567 14.7009 15.2743 14.2249C15.2861 13.9157 15.1805 13.8614 14.9079 13.8644C13.8889 13.8795 12.8686 13.878 11.8497 13.8659C11.6005 13.8629 11.4949 13.9021 11.4979 14.2008C11.5155 15.5494 11.5125 16.8981 11.4993 18.2467C11.4964 18.5152 11.5903 18.565 11.8263 18.562C12.8745 18.5499 13.9241 18.5469 14.9723 18.5635C15.2421 18.568 15.2758 18.4609 15.2714 18.2255C15.262 17.7548 15.2638 17.284 15.2656 16.8131L15.2656 16.813C15.2663 16.6246 15.267 16.4362 15.267 16.2479L15.267 16.2479Z" fill="#7F8E76" fill-rule="evenodd" transform="translate(7.351 0)" />
      <path d="M5.43083 4.20859C6.01284 3.79827 6.45265 3.34571 6.7796 2.78755C7.7178 1.18548 9.1692 0.422159 10.8976 0.135536C13.5233 -0.298923 15.9847 0.364836 18.3963 1.36198C20.5015 2.23241 22.5877 3.15262 24.775 3.8028C26.2645 4.2448 27.7994 4.43186 29.3138 4.73507C30.796 5.03226 31.7665 6.63584 31.3736 8.05988C31.0745 9.14452 30.2667 9.54131 29.2801 9.67404C25.9698 10.1221 22.7021 9.84602 19.4724 9.02084C19.0649 8.91677 18.8493 8.56074 18.9344 8.17905C19.0135 7.81704 19.4006 7.62695 19.8536 7.74158C22.1303 8.31631 24.4437 8.59394 26.7864 8.5864C27.7056 8.58337 28.6233 8.51546 29.5161 8.26205C29.9926 8.12629 30.1524 7.87734 30.0923 7.37203C30.0117 6.69618 29.629 6.25871 28.8799 6.07616C27.6895 5.78653 26.4756 5.61153 25.2867 5.30832C22.6229 4.62948 20.0823 3.59462 17.5475 2.53412C15.8909 1.84019 14.1727 1.37404 12.3651 1.4012C11.1938 1.41931 10.04 1.55055 9.0094 2.22788C8.55347 2.52808 8.19573 2.91125 7.92453 3.37889C7.35133 4.37303 6.51569 5.09562 5.61115 5.73674C5.39271 5.89061 5.34287 6.03242 5.34433 6.27228C5.3502 8.85611 5.34873 11.4385 5.34727 14.0223L5.34727 14.0231C5.34727 14.7865 5.15961 14.9781 4.41194 14.9796C3.23033 14.9811 2.04725 14.9826 0.864167 14.9796C0.195657 14.9766 0.00507377 14.7759 0.00360774 14.0941C0.00326251 13.9772 0.00259206 13.8604 0.00192186 13.7437C-0.000253933 13.3646 -0.00242704 12.9861 0.00653929 12.6066C0.0168015 12.1631 0.249899 11.9293 0.65159 11.9263C1.05035 11.9232 1.28638 12.1601 1.3201 12.5946C1.32156 12.6096 1.3201 12.6247 1.32156 12.6398C1.32471 12.736 1.31684 12.8439 1.30897 12.9519C1.29115 13.1962 1.27333 13.4407 1.38313 13.5495C1.53005 13.6954 1.77922 13.6675 2.02834 13.6395C2.13718 13.6273 2.24602 13.6151 2.34631 13.6174C2.53922 13.622 2.73212 13.6202 2.9249 13.6185C3.17018 13.6162 3.41525 13.6139 3.65987 13.6249C3.93402 13.637 4.03664 13.5706 4.03517 13.2583C4.02198 10.3891 4.02491 7.51987 4.03224 4.65211C4.03224 4.40621 3.97947 4.30665 3.71998 4.31269C3.01922 4.32928 2.31846 4.3323 1.6177 4.31118C1.34942 4.30363 1.3157 4.41526 1.31717 4.64909C1.32596 6.15159 1.32449 7.65261 1.3201 9.15508C1.31863 9.67706 1.06061 9.97273 0.635464 9.94707C0.267492 9.92444 0.0138695 9.72536 0.0124035 9.3316C0.00214136 7.4097 0.00214167 5.48633 0.0138699 3.56445C0.0168019 3.16468 0.28655 2.96556 0.648658 2.96254C2.02085 2.95047 3.39305 2.94444 4.76525 2.96556C5.24318 2.9731 5.40297 3.23861 5.41617 3.88728C5.41617 3.97176 5.4235 4.06076 5.43083 4.20859L5.43083 4.20859Z" fill="#7F8E76" fill-rule="evenodd" transform="translate(0 26.455)" />
      <path d="M5.34814 10.9041C7.5838 10.9237 9.70807 11.4517 11.7121 12.4564C15.9753 14.594 19.9585 13.8594 23.6632 11.1153C26.1319 9.2855 28.1727 6.94273 30.3629 4.78249C30.8057 4.34652 31.2469 3.90904 31.6911 3.47458C31.9051 3.26489 32.0869 3.03409 32.1691 2.7354C32.2907 2.29189 32.1339 1.89816 31.7439 1.67037C31.6295 1.60399 31.5123 1.54365 31.3965 1.48029C30.8555 1.18462 30.4582 1.22988 29.9964 1.62511C28.7224 2.71277 27.3341 3.61337 25.8343 4.33294C25.7684 4.36462 25.7039 4.39931 25.635 4.42345C25.2714 4.55319 24.9107 4.42194 24.7729 4.11269C24.6234 3.77478 24.7481 3.37653 25.1057 3.20606C26.5967 2.49705 27.9323 1.54516 29.2429 0.537455C30.7059 -0.586409 32.9797 0.146744 33.4562 1.86045C33.682 2.67506 33.5706 3.4791 32.9885 4.09007C30.0375 7.19162 27.038 10.2374 23.6823 12.8894C22.0447 14.1837 20.1447 14.6619 18.1597 14.9154C16.6043 15.113 15.0532 15.2261 13.5168 14.7494C12.8161 14.5322 12.1549 14.2289 11.4996 13.9046C9.50287 12.9195 7.4138 12.3206 5.18687 12.3297C3.75457 12.3357 2.38091 12.6284 1.1084 13.3404C0.67152 13.5848 0.296219 13.4883 0.08951 13.1051C-0.109869 12.7355 0.0264707 12.3584 0.472142 12.108C1.98948 11.2541 3.62703 10.9026 5.34814 10.9041L5.34814 10.9041Z" fill="#7F8E76" fill-rule="evenodd" transform="translate(6.435 26.27)" />
    </g>
  </g>
</svg>