<svg xmlns="http://www.w3.org/2000/svg" width="13.405" height="23.321" fill="none"><path fill="#FFF" fill-rule="evenodd" d="M7.94048 0A4.96427 4.96427 0 0 0 4.4302 1.45401a4.96426 4.96426 0 0 0-1.45401 3.51028v3.22023H.5c-.27614 0-.5.22386-.5.5v3.72028c0 .2761.22386.5.5.5h2.47619v9.9166c0 .2762.22386.5.5.5h4.46429c.27614 0 .5-.2238.5-.5v-9.9166h2.47622c.2044 0 .3883-.1245.4642-.3143l1.4881-3.72028a.5001.5001 0 0 0-.0502-.46601.49993.49993 0 0 0-.414-.21969H8.44048V5.70833a.98812.98812 0 0 1 .2894-.69869.98812.98812 0 0 1 .69869-.2894h1.48813c.2761 0 .5-.22386.5-.5V.5c0-.27614-.2239-.5-.5-.5H7.94048Zm4.46432 8.68452 1 1-1-.99987v-.00013Zm-4.46432.5h3.72572l-1.0881 2.72028H7.94048c-.27615 0-.5.2238-.5.5v9.9166H3.97619v-9.9166c0-.2762-.22386-.5-.5-.5H1V9.18452h2.47619c.27614 0 .5-.22385.5-.5V4.96429A3.96432 3.96432 0 0 1 5.1373 2.16111 3.96432 3.96432 0 0 1 7.94048 1h2.47622v2.72024h-.98813a1.9881 1.9881 0 0 0-1.98809 1.98809v2.97619c0 .27615.22385.5.5.5Z"/></svg>