<svg width="23.388" height="16.975" viewBox="0 0 23.388 16.975" fill="none" xmlns="http://www.w3.org/2000/svg">
  <g>
    <path d="M1.5364 0.263604C1.18492 -0.087868 0.615076 -0.087868 0.263604 0.263604C-0.0878677 0.615076 -0.0878677 1.18492 0.263604 1.5364L7.2147 8.4875L0.263604 15.4386C-0.0878677 15.7901 -0.0878677 16.3599 0.263604 16.7114C0.615076 17.0629 1.18492 17.0629 1.5364 16.7114L9.1239 9.1239C9.29268 8.95511 9.3875 8.7262 9.3875 8.4875C9.3875 8.24881 9.29268 8.01989 9.1239 7.8511L1.5364 0.263604L1.5364 0.263604Z" fill="#B5B5B5" fill-rule="evenodd" transform="translate(14 0)" />
    <path d="M0 0.9C0 0.402944 0.402944 0 0.9 0L21.9375 0C22.4346 0 22.8375 0.402944 22.8375 0.9C22.8375 1.39706 22.4346 1.8 21.9375 1.8L0.9 1.8C0.402944 1.8 0 1.39706 0 0.9L0 0.9Z" fill="#B5B5B5" fill-rule="evenodd" transform="translate(0 7)" />
  </g>
</svg>