<svg xmlns="http://www.w3.org/2000/svg" width="40" height="34.419" fill="none"><defs><clipPath id="a"><path d="M0 0h40v34.419H0z"/></clipPath></defs><g fill-rule="evenodd" clip-path="url(#a)"><path fill="#2196F3" d="m1.45 33.1713 19.35-16.65L1.5 1.205C.55 1.979419.025 3.01198.025 4.15209V30.2672c0 1.1186.5 2.1512 1.425 2.9041Z"/><path fill="#FFC107" d="M37.525 17.20923c0 1.50581-.95 2.83954-2.525 3.59247l-5.5 2.6244-6.825-5.42094-1.875-1.4843 7.225-6.21686L35 13.61679c1.575.75291 2.525 2.08663 2.525 3.59244Z"/><path fill="#4CAF50" d="M20.8 16.5208 1.5 1.20447c.25-.215119.575-.408726.9-.580819C3.975-.193791 5.875-.215302 7.5.559116L28.025 10.3039 20.8 16.5208Z"/><path fill="#F44336" d="M29.5 23.42623 7.5 33.8594c-.775.3872-1.65.5593-2.5.5593-.9 0-1.8-.1936-2.6-.6239-.347164-.1711-.666585-.3808-.95-.6238l19.35-16.65 1.875 1.4843 6.825 5.42093Z"/></g></svg>