<svg width="60" height="59.995" viewBox="0 0 60 59.995" fill="none" xmlns="http://www.w3.org/2000/svg">
  <g>
    <g>
      <path d="M6.6698 21.9776C6.6698 20.8557 6.66971 19.7337 6.66961 18.6117L6.66961 18.6106C6.6692 13.5618 6.66878 8.51243 6.6768 3.46396C6.6768 3.16444 6.60104 2.95216 6.38771 2.75441C6.08877 2.4767 5.80387 2.17864 5.533 1.87039C5.38143 1.69737 5.26915 1.6901 5.14143 1.87766C5.13301 1.88929 5.12319 1.89947 5.11196 1.9082C4.19129 2.57558 3.97095 3.47123 3.97515 4.63297C4.01 13.8741 4.00683 23.1143 4.00365 32.3551L4.00365 32.3554C4.00274 35.0251 4.00182 37.6949 4.00182 40.3647C4.00182 40.4079 4.00307 40.4513 4.00432 40.4948C4.00766 40.6107 4.01101 40.7266 3.99059 40.8387C3.92463 41.2094 3.70007 41.4319 3.33096 41.4304C2.96325 41.4275 2.74011 41.2036 2.67835 40.8329C2.66003 40.7211 2.66311 40.6056 2.66619 40.4901C2.66736 40.4463 2.66853 40.4025 2.66853 40.3589C2.66853 38.6808 2.66845 37.0026 2.66837 35.3244C2.66798 26.9333 2.66759 18.5416 2.67695 10.1508C2.67695 9.76117 2.58993 9.63616 2.20959 9.66669C1.82703 9.69662 1.44094 9.68822 1.05551 9.67984L1.05549 9.67984C0.954522 9.67764 0.853601 9.67544 0.7528 9.67394C0.261585 9.66524 0.00755813 9.40934 0.00475123 8.90184C-0.0022661 7.57874 -0.000862634 6.25562 0.00475123 4.93103C0.00755813 4.41923 0.257375 4.16042 0.74578 4.15316C1.30155 4.14443 1.85733 4.14298 2.41169 4.15606C2.60397 4.16042 2.70361 4.11535 2.66853 3.89871C2.66697 3.89063 2.66757 3.88255 2.66818 3.87448C2.66867 3.86801 2.66915 3.86155 2.66853 3.85509C2.47766 2.81839 2.9015 2.07104 3.66218 1.44002C4.07199 1.09978 4.41023 0.670854 4.78916 0.289909C5.1681 -0.0924891 5.49932 -0.0983045 5.87545 0.282639C6.49999 0.916575 7.10627 1.57087 7.73647 2.19899C8.00781 2.46799 8.00505 2.78978 8.0022 3.12229C8.00198 3.14743 8.00177 3.17264 8.00167 3.19788C8.00027 4.1517 8.00167 4.1517 8.91533 4.1517C10.4751 4.1517 12.0348 4.15178 13.5945 4.15186C21.3931 4.15226 29.1917 4.15267 36.9903 4.14298C37.4295 4.14298 37.7537 4.27092 38.0513 4.60098C38.5818 5.18839 39.1488 5.74236 39.6947 6.31523C40.1003 6.74125 40.1017 7.08146 39.6989 7.50456C39.1039 8.12982 38.499 8.74341 37.9053 9.3686C37.6962 9.58816 37.4618 9.68119 37.1629 9.67829C36.627 9.67362 36.0912 9.67416 35.5553 9.67471C34.9249 9.67534 34.2945 9.67598 33.6641 9.66814C33.396 9.66524 33.3132 9.73209 33.3216 10.0185C33.3427 10.7222 33.3385 11.4289 33.323 12.1326C33.3174 12.3755 33.3819 12.4496 33.6205 12.4423C34.1889 12.4249 34.7587 12.4292 35.3285 12.438C36.4457 12.4568 37.3229 13.3351 37.3243 14.4866C37.3327 20.9452 37.3327 27.4039 37.3243 33.8625C37.3229 35.0126 36.4457 35.9082 35.3271 35.9082C27.7737 35.914 20.2203 35.914 12.6668 35.9082C11.5328 35.9068 10.6711 34.9995 10.6697 33.8174C10.6641 27.3878 10.6641 20.9569 10.6697 14.5273C10.6711 13.3278 11.5427 12.4496 12.7103 12.4365C13.2661 12.4307 13.8205 12.4307 14.3763 12.438C14.5615 12.4409 14.6794 12.4365 14.6723 12.1733C14.6527 11.426 14.6583 10.6772 14.6695 9.92983C14.6723 9.71607 14.605 9.66959 14.4113 9.66959C12.3567 9.67684 10.302 9.67684 8.24587 9.66959C8.0396 9.66814 7.9736 9.7379 7.99747 9.93853C8.00516 9.99608 8.003 10.0557 8.00086 10.115C7.99986 10.1426 7.99887 10.1702 7.99887 10.1974L7.99887 40.276C7.99887 40.3094 7.99902 40.3429 7.99918 40.3766C7.99949 40.4439 7.9998 40.5115 7.99887 40.5784C7.99327 41.1222 7.74907 41.4362 7.33087 41.4362C6.914 41.4362 6.66559 41.1222 6.66559 40.577C6.6684 34.3772 6.6698 28.1773 6.6698 21.9776L6.6698 21.9776ZM2.66999 6.91134L2.66999 6.60893C2.66999 6.0402 2.66999 5.75667 2.53335 5.62248C2.39752 5.48908 2.12665 5.50326 1.58651 5.53153C1.58183 5.53153 1.57716 5.53169 1.57248 5.53185L1.57246 5.53185C1.56311 5.53217 1.55376 5.5325 1.54441 5.53153C1.38021 5.50681 1.33249 5.58387 1.33389 5.74962C1.34091 6.52606 1.34091 7.30247 1.33389 8.07891C1.33249 8.24902 1.38863 8.28535 1.54581 8.29848L1.55891 8.29958C2.11703 8.34649 2.39444 8.36981 2.53232 8.2373C2.66859 8.10635 2.66859 7.82321 2.66859 7.26026L2.66859 7.25599C2.66999 7.14106 2.66999 7.0262 2.66999 6.91134L2.66999 6.91134ZM22.5416 8.2927C27.2615 8.2927 31.9828 8.2927 36.7026 8.29125C36.7248 8.29125 36.747 8.29172 36.7691 8.2922C36.9198 8.29543 37.0656 8.29856 37.1966 8.15021C37.525 7.7794 37.8745 7.42902 38.2268 7.08293C38.3615 6.95067 38.3516 6.8634 38.2226 6.73691C37.9208 6.44029 37.619 6.14077 37.3412 5.81944C37.1503 5.59843 36.944 5.52283 36.6563 5.52283C28.4307 5.53046 20.2051 5.5303 11.9795 5.53015L11.9775 5.53015C10.8047 5.53012 9.63197 5.5301 8.45922 5.5301C8.43758 5.5301 8.41566 5.53096 8.39367 5.53183C8.34582 5.53372 8.29769 5.53562 8.25156 5.52864C8.04802 5.49811 7.99469 5.58825 7.99889 5.79181C8 5.86008 8.00117 5.92835 8.00234 5.99662L8.00234 5.99664C8.01298 6.619 8.02363 7.24126 7.99329 7.86228C7.97642 8.22867 8.08169 8.3014 8.42276 8.29995C12.2727 8.29164 16.1237 8.29207 19.974 8.29251L19.9748 8.29251C20.8304 8.2926 21.6861 8.2927 22.5416 8.2927L22.5416 8.2927ZM23.976 12.4365C24.5769 12.4365 25.178 12.4362 25.7791 12.4359L25.7797 12.4359C27.7332 12.4348 29.6871 12.4338 31.6403 12.4438C31.9266 12.4452 32.0178 12.3827 32.0066 12.073C31.9814 11.3693 31.9912 10.664 32.0038 9.95888C32.008 9.73786 31.9532 9.66956 31.7301 9.66956C26.5794 9.67681 21.4287 9.67536 16.2766 9.66956C16.0646 9.66956 15.9902 9.71756 15.9958 9.95162C16.0113 10.6423 16.0197 11.3329 15.993 12.0221C15.9804 12.3536 16.0632 12.4467 16.3944 12.4438C18.2887 12.4328 20.1821 12.4342 22.0759 12.4356C22.7092 12.436 23.3425 12.4365 23.976 12.4365L23.976 12.4365ZM23.9984 34.5327L35.0745 34.5327C35.7875 34.5327 35.9966 34.3204 35.9966 33.592L35.9966 14.7396C35.9966 14.0388 35.7819 13.8192 35.097 13.8192L12.9012 13.8192C12.2149 13.8192 12.0016 14.0373 12.0016 14.7381L12.0016 33.5905C12.0016 34.3219 12.2079 34.5342 12.9209 34.5342C16.6133 34.5342 20.3059 34.5327 23.9984 34.5327L23.9984 34.5327Z" fill="#7F8E76" fill-rule="evenodd" />
      <path d="M8.63515 3.21815L8.63515 8.56445C8.63515 8.74825 8.63605 8.93192 8.63696 9.11549L8.63696 9.11563C8.63903 9.53612 8.6411 9.95611 8.63228 10.3761C8.62108 10.917 8.37408 11.1613 7.85055 11.1613C3.94895 11.1642 0.0472794 11.1642 -3.85432 11.1613C-4.42132 11.1613 -4.65851 10.9097 -4.65991 10.3165C-4.66202 8.66625 -4.66175 7.01678 -4.66149 5.36694L-4.66149 5.36682C-4.6614 4.81592 -4.66131 4.26499 -4.66131 3.71398L-4.66131 3.20654C-5.17639 3.43916 -5.48375 3.18472 -5.76303 2.78924C-6.19671 2.17421 -6.65985 1.58245 -7.10475 0.976109C-7.4486 0.506456 -7.40369 0.164785 -6.94896 -0.198725C-4.39887 -2.23285 -1.84877 -4.26553 0.705545 -6.29529C1.55601 -6.96994 2.44861 -6.97285 3.30334 -6.29529C5.85908 -4.26843 8.40915 -2.23576 10.9593 -0.201633C11.4111 0.158983 11.4533 0.509357 11.1108 0.97756C10.6575 1.5955 10.1985 2.20909 9.74101 2.82267C9.37755 3.31408 9.24701 3.36353 8.63515 3.21815L8.63515 3.21815ZM1.991 -5.40975C1.76646 -5.40975 1.60506 -5.27162 1.43946 -5.13931C-0.702225 -3.43233 -2.84532 -1.7268 -4.98701 -0.0183678C-5.227 0.173548 -5.61435 0.359682 -5.64383 0.586496C-5.6616 0.729208 -5.5246 0.887072 -5.38181 1.05161C-5.29911 1.14691 -5.21447 1.24444 -5.15683 1.34257C-4.98701 1.63189 -4.85227 1.59846 -4.61369 1.40652C-2.65585 -0.172491 -0.686785 -1.73553 1.27946 -3.30292C1.95593 -3.84235 2.057 -3.84235 2.7208 -3.3131C4.53413 -1.8693 6.346 -0.42403 8.15786 1.0212L8.16005 1.02294C8.55322 1.33618 8.75001 1.49297 8.92372 1.46913C9.1006 1.44487 9.25354 1.23331 9.56553 0.808958C9.71286 0.60977 9.68906 0.523991 9.5052 0.378536C7.1712 -1.4709 4.84426 -3.3291 2.51593 -5.18583C2.36153 -5.30943 2.20013 -5.41993 1.991 -5.40975L1.991 -5.40975ZM-3.32669 5.895C-3.32669 6.20915 -3.3262 6.52331 -3.32572 6.83747L-3.32572 6.83754C-3.32436 7.71706 -3.323 8.59661 -3.3323 9.47617C-3.33511 9.71748 -3.27617 9.79311 -3.03617 9.78731C-2.38357 9.76983 -1.73095 9.76258 -1.07974 9.79021C-0.768171 9.80326 -0.685371 9.71748 -0.689577 9.39038C-0.706865 7.82413 -0.701473 6.25652 -0.696085 4.69013L-0.696085 4.69008C-0.695786 4.60316 -0.695486 4.51624 -0.695192 4.42934C-0.693792 3.80415 -0.462191 3.57008 0.135675 3.56863C1.35808 3.56566 2.57908 3.56711 3.80008 3.56863C4.45134 3.57008 4.67167 3.79834 4.67167 4.47444C4.67194 4.78477 4.67235 5.09505 4.67276 5.4053L4.67276 5.40599C4.67454 6.74969 4.67631 8.0928 4.66607 9.43686C4.66321 9.71748 4.73201 9.80036 5.00567 9.79021C5.64288 9.76838 6.28281 9.76258 6.92141 9.79166C7.23721 9.80616 7.31161 9.71313 7.31014 9.39038C7.29614 7.07562 7.29894 4.75941 7.30734 2.44464C7.30874 2.1902 7.23861 2.02444 7.04067 1.86745C5.45201 0.614101 3.86747 -0.646515 2.29141 -1.91875C2.08368 -2.08741 1.95734 -2.10777 1.73561 -1.92748C0.139875 -0.634884 -1.4657 0.641727 -3.07687 1.91248C-3.26354 2.05939 -3.33371 2.20622 -3.3309 2.44609C-3.32279 3.27453 -3.3242 4.10528 -3.32561 4.93609L-3.32561 4.93612C-3.32615 5.25578 -3.32669 5.57545 -3.32669 5.895L-3.32669 5.895ZM3.33839 7.32426C3.33839 7.1367 3.33777 6.94913 3.33715 6.76157L3.33715 6.76148C3.33548 6.25987 3.33382 5.75826 3.34406 5.25669C3.34826 5.02255 3.29913 4.93532 3.05353 4.94119C2.34759 4.9586 1.63879 4.95715 0.932859 4.94264C0.699926 4.93822 0.629726 5.0008 0.632526 5.24944C0.643793 6.65688 0.643793 8.06431 0.632526 9.47182C0.631126 9.71024 0.68166 9.79312 0.925859 9.78732C1.63319 9.76984 2.34053 9.77129 3.04653 9.78732C3.28086 9.79312 3.34966 9.72481 3.34406 9.48052C3.33291 8.96193 3.33489 8.44409 3.33686 7.92649L3.33686 7.92637C3.33763 7.72565 3.33839 7.52495 3.33839 7.32426L3.33839 7.32426Z" fill="#7F8E76" fill-rule="evenodd" transform="translate(21.993 21.99)" />
    </g>
  </g>
</svg>