<svg width="60" height="57.978" viewBox="0 0 60 57.978" fill="none" xmlns="http://www.w3.org/2000/svg">
  <g>
    <path d="M25.3337 6.83819C25.3337 6.61913 25.3331 6.40554 25.3326 6.19596L25.3326 6.19587C25.3312 5.62338 25.3298 5.08077 25.3396 4.53816C25.3426 4.34927 25.2745 4.2953 25.1235 4.24133C24.8125 4.12863 24.6674 3.87307 24.6674 3.52227C24.6674 3.25082 24.6668 2.97923 24.6661 2.70758L24.6661 2.70719C24.6646 2.05607 24.663 1.40463 24.6703 0.753979C24.6763 0.282543 24.9339 0.00634929 25.3767 0.00476197C27.5695 -0.00158732 29.7638 -0.00158732 31.9567 0.00476197C32.3965 0.00634929 32.6541 0.285718 32.6585 0.758739C32.6658 1.40949 32.6643 2.06102 32.6627 2.71223C32.6621 2.98391 32.6615 3.25554 32.6615 3.52704C32.6615 3.83656 32.5534 4.11275 32.275 4.19847C32.01 4.28101 31.9922 4.43975 31.9937 4.67784C31.9996 7.01438 32.0041 9.35089 31.9878 11.6874C31.9863 11.997 32.0929 12.1653 32.3091 12.3335C34.0489 13.6875 35.7827 15.0478 37.5165 16.4098C38.1651 16.9193 38.1651 17.3622 37.521 17.8828C36.9006 18.3844 36.2861 18.8955 35.6539 19.3765C35.4155 19.5574 35.3207 19.7463 35.3207 20.0669C35.3326 24.1892 35.3296 28.3115 35.3237 32.4354C35.3237 32.7148 35.3326 32.8528 35.6731 32.8989C36.9628 33.0735 37.8689 34.1306 37.9815 35.5291C37.9993 35.7418 38.0615 35.8259 38.2421 35.9021C39.4829 36.4259 40.1936 37.7481 39.9537 39.0577C39.6917 40.4895 38.6448 41.4339 37.2811 41.4339C25.7587 41.4371 14.2361 41.4371 2.71219 41.4339C1.35295 41.4339 0.300195 40.4767 0.0440416 39.0497C-0.188422 37.7529 0.517852 36.4227 1.72607 35.9132C1.91707 35.8322 2.00147 35.7576 2.01924 35.5211C2.12585 34.1163 3.06311 33.0607 4.37497 32.8878C4.63853 32.8528 4.67702 32.7687 4.67702 32.5163C4.66962 28.3337 4.66962 24.1527 4.67851 19.9701C4.67851 19.7098 4.58819 19.5685 4.40754 19.4273C3.73533 18.9018 3.07199 18.3622 2.40865 17.8241C1.85933 17.3796 1.86229 16.8986 2.42346 16.4589C8.11067 12.0018 13.7993 7.5493 19.4836 3.08734C19.8567 2.79369 20.1707 2.80956 20.5363 3.09846C22.0525 4.30006 23.5791 5.48738 25.1027 6.67946C25.1575 6.7239 25.2153 6.75724 25.3337 6.83819L25.3337 6.83819ZM28.7067 2.85873L30.3295 2.85873C30.8376 2.85873 31.0882 2.85873 31.2127 2.72442C31.3367 2.59062 31.3356 2.32356 31.3393 1.79046C31.3407 1.50157 31.2741 1.42061 31.0002 1.4238C30.0009 1.4357 29.0024 1.43421 28.0035 1.43272C27.6703 1.43222 27.3371 1.43173 27.0039 1.43173C26.4933 1.43173 26.2383 1.43173 26.1123 1.56843C25.9866 1.70487 25.9895 1.97751 25.9953 2.52228L25.9955 2.54603C25.9985 2.79524 26.0548 2.87143 26.2917 2.86667C26.8859 2.85376 27.4809 2.8556 28.0762 2.85744C28.2864 2.85808 28.4965 2.85873 28.7067 2.85873L28.7067 2.85873ZM30.6655 11.0335C30.6655 10.521 30.6653 10.0132 30.665 9.50915C30.6643 7.83682 30.6635 6.20462 30.6714 4.57147C30.6729 4.32861 30.5989 4.27941 30.3901 4.28099C29.2396 4.29051 28.0877 4.2921 26.9372 4.2794C26.7166 4.27623 26.6604 4.34607 26.6633 4.57782C26.6719 5.31871 26.6704 6.0596 26.6689 6.80049C26.6684 7.08501 26.6678 7.36953 26.6678 7.65405C26.6678 7.66556 26.6677 7.67696 26.6676 7.68827C26.6665 7.80641 26.6656 7.91343 26.7818 8.00325C28.0581 8.99531 29.33 9.99059 30.6655 11.0335L30.6655 11.0335ZM34.6545 18.3939C34.7226 18.3431 34.7907 18.2955 34.8558 18.2447C35.2008 17.9685 35.531 17.6701 35.8923 17.4225C36.2047 17.2082 36.1484 17.0955 35.882 16.8876C30.6834 12.8256 25.4907 8.7573 20.3039 4.67945C20.07 4.49691 19.9352 4.50485 19.7072 4.68581C16.4113 7.2811 13.1079 9.86364 9.80602 12.4494C7.89156 13.9494 5.98151 15.4526 4.06257 16.9447C3.84492 17.113 3.80642 17.1939 4.05517 17.3686C4.39128 17.6035 4.71998 17.859 5.01908 18.1431C5.25894 18.3701 5.41886 18.3638 5.68242 18.1574C10.2044 14.6161 14.7366 11.0875 19.2645 7.55568C19.9841 6.99536 20.0344 6.99695 20.7511 7.55568C25.2908 11.0954 29.832 14.6351 34.3717 18.1733C34.459 18.2416 34.5494 18.3114 34.6545 18.3939L34.6545 18.3939ZM33.997 29.829C33.997 29.1382 33.9968 28.4475 33.9966 27.7568L33.9966 27.7567C33.9959 25.2034 33.9952 22.6507 34.0045 20.0971C34.006 19.7844 33.9304 19.5876 33.6876 19.3987C29.253 15.9542 24.8229 12.5033 20.4032 9.03507C20.0863 8.78586 19.8997 8.80808 19.5976 9.04615C15.1764 12.5113 10.7478 15.9637 6.31318 19.4098C6.08516 19.5876 6.00224 19.7653 6.00372 20.0638C6.01113 26.567 6.01409 33.0703 5.99928 39.5719C5.9978 39.9656 6.11329 40.0148 6.43755 40.0148C11.032 40.0038 15.6265 40.0005 20.221 40.018C20.6223 40.0196 20.677 39.8831 20.677 39.5037C20.6677 35.3957 20.6685 31.2887 20.6692 27.1811L20.6692 27.1809C20.6694 26.0652 20.6696 24.9495 20.6696 23.8336C20.6696 23.0781 20.877 22.8606 21.5906 22.8606L30.3354 22.8606C31.1572 22.8606 31.3319 23.0495 31.3319 23.932C31.3319 24.8782 31.332 25.8242 31.3321 26.7702L31.3321 26.7703C31.3325 31.0477 31.333 35.3244 31.3245 39.6021C31.3245 39.9307 31.3882 40.0307 31.705 40.0164C32.3417 39.9863 32.9828 39.9878 33.6195 40.0164C33.9304 40.0307 34.006 39.9418 34.0045 39.6069C33.9952 37.042 33.9959 34.4771 33.9966 31.9115L33.9966 31.9113C33.9968 31.2173 33.997 30.5231 33.997 29.829L33.997 29.829ZM29.9992 32.1497C29.9992 31.5643 29.9989 30.9791 29.9986 30.3938L29.9986 30.3937C29.9975 28.4938 29.9964 26.5944 30.0066 24.694C30.0081 24.3623 29.9356 24.2797 29.6231 24.2829C27.2082 24.2988 24.7918 24.2988 22.3768 24.2829C22.0658 24.2814 21.9933 24.3607 21.9933 24.694C22.0052 29.6639 22.0052 34.6355 21.9933 39.6054C21.9933 39.9371 22.0644 40.0197 22.3753 40.0165C24.7902 40.0006 27.2067 40.0006 29.6216 40.0165C29.9326 40.018 30.0066 39.9387 30.0052 39.6054C29.9953 37.7747 29.9968 35.9432 29.9982 34.1114L29.9982 34.1113C29.9987 33.4575 29.9992 32.8036 29.9992 32.1497L29.9992 32.1497ZM4.67558 37.1577C4.67558 36.9192 4.67453 36.6809 4.67347 36.4427C4.67078 35.8339 4.66809 35.2256 4.68299 34.6164C4.69187 34.2703 4.5749 34.2608 4.32023 34.3449C3.61099 34.5799 3.2275 35.2926 3.40074 36.0846C3.55769 36.799 3.32967 37.1228 2.64708 37.1513C1.93044 37.1815 1.35743 37.7958 1.3441 38.5498C1.33078 39.3244 1.89787 39.9784 2.63524 40.0022C2.93145 40.0119 3.22805 40.01 3.52444 40.0082C3.8103 40.0065 4.09598 40.0047 4.38094 40.0133C4.6134 40.0197 4.68595 39.953 4.68151 39.6974C4.67074 39.082 4.6725 38.4658 4.67426 37.8499C4.67492 37.6191 4.67558 37.3883 4.67558 37.1577L4.67558 37.1577ZM35.3311 37.1481L35.3311 39.6926C35.3311 39.715 35.33 39.7378 35.3289 39.7605C35.3222 39.8924 35.3159 40.0187 35.5369 40.0133C35.8143 40.0057 36.0919 40.008 36.3694 40.0103C36.7305 40.0133 37.0914 40.0162 37.4514 39.9974C38.1621 39.9593 38.6907 39.2879 38.6655 38.5164C38.6419 37.7767 38.0807 37.1831 37.3759 37.1529C36.6607 37.1228 36.4475 36.8164 36.6119 36.0608C36.7807 35.2862 36.3675 34.5481 35.6583 34.337C35.417 34.2656 35.3163 34.2909 35.3237 34.6053C35.3377 35.2181 35.3353 35.8326 35.3329 36.4469C35.332 36.6807 35.3311 36.9145 35.3311 37.1481L35.3311 37.1481Z" fill="#7F8E76" fill-rule="evenodd" />
    <path d="M4.99883 -3.42544C4.99883 -3.01939 4.99892 -2.61334 4.99902 -2.20728C4.99931 -1.00696 4.9996 0.193378 4.99736 1.39368C4.99589 2.05877 4.76789 2.30005 4.14009 2.30005C1.60222 2.30162 -0.937114 2.30162 -3.47644 2.30005C-4.10276 2.30005 -4.33078 2.0572 -4.33226 1.39211C-4.33374 -1.82065 -4.33374 -5.03181 -4.33226 -8.24456C-4.33226 -8.88107 -4.09832 -9.12869 -3.49717 -9.12869C-0.944513 -9.13028 1.60814 -9.13028 4.16083 -9.12869C4.76049 -9.12869 4.99443 -8.88107 4.99589 -8.24296C4.99945 -6.96488 4.9992 -5.68579 4.99895 -4.40649L4.99895 -4.40645C4.99889 -4.07945 4.99883 -3.75245 4.99883 -3.42544L4.99883 -3.42544ZM-0.333073 -5.88895C-0.333073 -6.03669 -0.333955 -6.18443 -0.334837 -6.33213C-0.336979 -6.69065 -0.339119 -7.04894 -0.328632 -7.40643C-0.322712 -7.63342 -0.376013 -7.71278 -0.601072 -7.70644C-1.30883 -7.69057 -2.01659 -7.69215 -2.72434 -7.70485C-2.93607 -7.70961 -3.00714 -7.65406 -3.00418 -7.41278C-2.99086 -6.41595 -2.99234 -5.41911 -3.00271 -4.42227C-3.00566 -4.19528 -2.95533 -4.11591 -2.73026 -4.12226C-2.02251 -4.13814 -1.31475 -4.13655 -0.606998 -4.12385C-0.395266 -4.12068 -0.318266 -4.17464 -0.327152 -4.41592C-0.340813 -4.76405 -0.338064 -5.11298 -0.335318 -5.46157C-0.334195 -5.60412 -0.333073 -5.7466 -0.333073 -5.88895L-0.333073 -5.88895ZM0.999585 -5.96037C0.999585 -5.81165 1.00031 -5.66293 1.00103 -5.51421C1.00285 -5.14229 1.00466 -4.77036 0.995139 -4.39845C0.989219 -4.18257 1.04992 -4.12225 1.24981 -4.12543C1.97089 -4.13813 2.69349 -4.13813 3.41455 -4.12543C3.61442 -4.12225 3.67068 -4.18415 3.66922 -4.39845C3.65882 -5.40957 3.65882 -6.42228 3.66922 -7.43341C3.67215 -7.64769 3.61442 -7.7096 3.41455 -7.70643C2.69349 -7.69373 1.97089 -7.69373 1.24981 -7.70643C1.04992 -7.7096 0.989219 -7.64769 0.995139 -7.43341C1.00563 -7.0848 1.00349 -6.737 1.00135 -6.38943L1.00135 -6.38939C1.00047 -6.24635 0.999585 -6.10336 0.999585 -5.96037L0.999585 -5.96037ZM3.66478 -0.955612C3.66478 -1.09555 3.66406 -1.23562 3.66333 -1.37574L3.66333 -1.37581C3.66153 -1.7268 3.65972 -2.07812 3.66924 -2.42862C3.67518 -2.63815 3.62331 -2.70958 3.41751 -2.70641C2.69645 -2.69371 1.97389 -2.69371 1.25281 -2.70641C1.05736 -2.70958 0.992206 -2.6572 0.993686 -2.43656C1.00405 -1.42545 1.00405 -0.412733 0.993686 0.598415C0.992206 0.807961 1.03959 0.87936 1.2454 0.876217C1.96648 0.863495 2.68905 0.863495 3.41011 0.876217C3.60558 0.87936 3.67518 0.826973 3.66924 0.606346C3.65972 0.234314 3.66153 -0.137718 3.66333 -0.50975L3.66333 -0.509813C3.66406 -0.658413 3.66478 -0.807013 3.66478 -0.955612L3.66478 -0.955612ZM-2.99808 -0.91577C-2.99808 -0.771088 -2.99735 -0.626406 -2.99663 -0.481764C-2.99482 -0.120182 -2.99301 0.241161 -3.00252 0.601665C-3.00844 0.816002 -2.9507 0.879467 -2.74785 0.87632C-2.02676 0.863598 -1.3042 0.863598 -0.583124 0.87632C-0.383238 0.879467 -0.325491 0.819145 -0.326971 0.603237C-0.337337 -0.407837 -0.337337 -1.42056 -0.326971 -2.43169C-0.325491 -2.6444 -0.378791 -2.70947 -0.581644 -2.7063C-1.30272 -2.6936 -2.02528 -2.6936 -2.74636 -2.7063C-2.94626 -2.70947 -3.00844 -2.64915 -3.00252 -2.43328C-2.993 -2.07147 -2.99482 -1.70966 -2.99663 -1.34842C-2.99735 -1.2041 -2.99808 -1.05987 -2.99808 -0.91577L-2.99808 -0.91577Z" fill="#7F8E76" fill-rule="evenodd" transform="translate(13 32)" />
  </g>
</svg>