<svg xmlns="http://www.w3.org/2000/svg" width="21.629" height="21.629" fill="none"><path fill="#FFF" fill-rule="evenodd" d="M6.91818 0C3.09396 0 0 3.09396 0 6.91818v7.79222c0 3.8242 3.09396 6.9182 6.91818 6.9182h7.79222c3.8242 0 6.9182-3.094 6.9182-6.9182V6.91818C21.6286 3.09396 18.5346 0 14.7104 0H6.91818ZM.2 6.91818C.2 3.20442 3.20442.2 6.91818.2h7.79222c3.7138 0 6.7182 3.00442 6.7182 6.71818v7.79222c0 3.7138-3.0044 6.7182-6.7182 6.7182H6.91818C3.20442 21.4286.2 18.4242.2 14.7104V6.91818ZM6.91818.974026C3.61701.974026.974026 3.61701.974026 6.91818v7.79222c0 3.3012 2.642984 5.9441 5.944154 5.9441h7.79222c3.3012 0 5.9441-2.6429 5.9441-5.9441V6.91818c0-3.30117-2.6429-5.944154-5.9441-5.944154H6.91818ZM1.17403 6.91818c0-3.19071 2.55344-5.74415 5.74415-5.74415h7.79222c3.1907 0 5.7441 2.55344 5.7441 5.74415v7.79222c0 3.1907-2.5534 5.7441-5.7441 5.7441H6.91818c-3.19071 0-5.74415-2.5534-5.74415-5.7441V6.91818Z"/></svg>