<svg xmlns="http://www.w3.org/2000/svg" width="21.645" height="21.645" fill="none"><path fill="#FFF" fill-rule="evenodd" d="M2.70563 5.41126C1.21393 5.41126 0 4.19733 0 2.70563 0 1.21393 1.21393 0 2.70563 0c1.4917 0 2.70563 1.21393 2.70563 2.70563 0 1.4917-1.21393 2.70563-2.70563 2.70563Zm0-4.509384c-.99477 0-1.803754.808984-1.803754 1.803754S1.71086 4.50938 2.70563 4.50938s1.80375-.80898 1.80375-1.80375c0-.99477-.80898-1.803754-1.80375-1.803754ZM21.1941 21.645h-4.5094c-.1196 0-.2343-.0475-.3189-.1321-.0845-.0845-.132-.1992-.132-.3188v-8.1169c0-1.0236-.4266-1.792-1.1716-2.1068-.7693-.3265-1.7081-.1262-2.4359.5015v9.7222c0 .1196-.0475.2343-.1321.3188-.0846.0846-.1993.1321-.3189.1321H7.66594c-.11959 0-.23429-.0475-.31886-.1321-.08456-.0845-.13207-.1992-.13207-.3188V7.66594c0-.11959.04751-.23429.13207-.31886.08457-.08456.19927-.13207.31886-.13207h4.50936c.1.00002.1971.03325.2761.09447.079.06122.1354.14695.1604.24373 1.4466-1.04076 3.8565-1.61977 5.7838-.95959 1.4547.49873 3.198 1.86958 3.2494 5.57628v9.0251c-.0002.1194-.0478.2339-.1324.3183-.0845.0843-.1991.1317-.3185.1317Zm-4.0585-.9019h3.6075v-8.5678c-.0342-2.5117-.9478-4.14951-2.6397-4.72851-2.1014-.7197-4.7493.36706-5.5763 1.40242-.0587.07226-.1382.12466-.2278.15002-.0895.02535-.1847.02244-.2726-.00835-.0878-.03079-.164-.08796-.2181-.16368-.0541-.07572-.0835-.16631-.0842-.25938v-.45094H8.11688V20.7431h3.60752v-9.4697c0-.0601.012-.1197.0354-.1752.0234-.0554.0577-.1056.1008-.1476 1.0083-.97946 2.4053-1.29512 3.5525-.8108 1.0948.4636 1.7225 1.5341 1.7216 2.9374l.0009 7.6659Zm-12.17528.9019H.450938c-.119596 0-.234294-.0475-.318861-.1321C.0475094 21.4284 0 21.3137 0 21.1941V7.66594c0-.11959.0475094-.23429.132077-.31886.084567-.08456.199265-.13207.318861-.13207H4.96032c.11959 0 .23429.04751.31886.13207.08457.08457.13208.19927.13208.31886V21.1941c0 .1196-.04751.2343-.13208.3188-.08457.0846-.19927.1321-.31886.1321Zm-4.058444-.9019H4.50938V8.11688H.901876V20.7431Z"/></svg>