<?xml version="1.0" encoding="utf-8"?>
<svg width="20" height="20" viewBox="0 0 18 18" fill="none" xmlns="http://www.w3.org/2000/svg">
  <g>
    <path d="M3.09 0C1.38344 0 0 1.38344 0 3.09C0 4.79656 1.38344 6.18 3.09 6.18C4.79656 6.18 6.18 4.79656 6.18 3.09C6.18 1.38344 4.79656 0 3.09 0L3.09 0ZM1.5 3.09C1.5 2.21187 2.21187 1.5 3.09 1.5C3.96813 1.5 4.68 2.21187 4.68 3.09C4.68 3.96813 3.96813 4.68 3.09 4.68C2.21187 4.68 1.5 3.96813 1.5 3.09L1.5 3.09Z" fill="#FFFFFF" fill-rule="evenodd" transform="translate(5.91 4.643)" />
    <path d="M7.22137 1.54972e-06C10.2772 0.00206751 13.4081 1.80779 14.2346 5.45941C15.1899 9.67957 12.5531 13.1644 10.4375 15.196L10.4375 15.196C8.6386 16.9308 5.79509 16.9285 3.99104 15.1959L3.99009 15.195C1.88234 13.1636 -0.753647 9.67141 0.201559 5.45191L0.201733 5.45114C1.03241 1.79953 4.16542 -0.00206447 7.22137 1.54972e-06L7.22137 1.54972e-06ZM1.66437 5.78386L1.66454 5.78309C2.31163 2.94021 4.7284 1.49832 7.22035 1.5C9.71261 1.50169 12.128 2.94721 12.7716 5.79056L12.7716 5.7906C13.5412 9.19043 11.438 12.1556 9.39856 14.114L9.3972 14.1154C8.18132 15.2889 6.25652 15.291 5.031 14.115L5.03007 14.1141C2.99827 12.1556 0.89518 9.18352 1.66437 5.78386L1.66437 5.78386Z" fill="#FFFFFF" fill-rule="evenodd" transform="translate(1.782 0.75)" />
  </g>
</svg>