<svg width="18" height="18" viewBox="0 0 18 18" fill="none" xmlns="http://www.w3.org/2000/svg">
  <g>
    <path d="M0.0900292 -1.54749C-1.04768 -1.54749 -1.96997 -0.625192 -1.96997 0.512515C-1.96997 1.65022 -1.04768 2.57251 0.0900292 2.57251C1.22774 2.57251 2.15003 1.65022 2.15003 0.512515C2.15003 -0.625192 1.22774 -1.54749 0.0900292 -1.54749L0.0900292 -1.54749ZM-0.969971 0.512515C-0.969971 -0.0729055 -0.49539 -0.547485 0.0900292 -0.547485C0.67545 -0.547485 1.15003 -0.0729055 1.15003 0.512515C1.15003 1.09793 0.67545 1.57252 0.0900292 1.57252C-0.49539 1.57252 -0.969971 1.09793 -0.969971 0.512515L-0.969971 0.512515Z" fill="#7F8E76" fill-rule="evenodd" transform="translate(5.91 4.642)" />
    <path d="M4.22026 -0.249999C6.25749 -0.248621 8.34472 0.955194 8.89572 3.38961C9.53259 6.20305 7.77473 8.52627 6.36436 9.88067L6.36434 9.88064C5.16507 11.0372 3.2694 11.0357 2.0667 9.8806L2.06607 9.88C0.660901 8.52573 -1.09643 6.19761 -0.459621 3.38461L-0.459505 3.38409C0.09428 0.949687 2.18295 -0.251376 4.22026 -0.249999L4.22026 -0.249999ZM0.515616 3.60591L0.515733 3.60539C0.947125 1.71014 2.5583 0.748878 4.21961 0.750001C5.88111 0.751124 7.49136 1.71481 7.92043 3.61037L7.92043 3.6104C8.43349 5.87695 7.03136 7.85373 5.67175 9.15933L5.67084 9.16027C4.86025 9.9426 3.57705 9.944 2.76004 9.16L2.75942 9.1594C1.40489 7.85376 0.00282562 5.87234 0.515616 3.60591L0.515616 3.60591Z" fill="#7F8E76" fill-rule="evenodd" transform="translate(1.782 0.75)" />
  </g>
</svg>