<?xml version="1.0" encoding="utf-8"?>
<svg width="148" height="43.001" viewBox="0 0 148 43.001" fill="none" xmlns="http://www.w3.org/2000/svg">
  <g>
    <path d="M9.83355 15.0764C7.96128 15.0764 6.43864 14.7722 5.34603 14.202L5.34603 24.315L3.23884 24.315C1.756 24.315 0 23.3646 0 20.5894L0 -0.435128C0 -0.594398 0.100714 -0.737003 0.255921 -0.787047C1.8591 -1.30395 5.13642 -1.91747 6.94593 -1.91747L9.9514 -1.91747C15.1413 -1.91747 18.8484 0.972484 18.8484 6.1799C18.8484 11.6922 14.9462 15.0764 9.83355 15.0764L9.83355 15.0764ZM9.28803 2.49235L7.57106 2.49235C6.9069 2.49235 5.97038 2.72045 5.34603 2.83374L5.34603 10.2096C6.28256 10.4757 7.76617 10.6658 9.13194 10.6658C11.8635 10.6658 13.3463 9.14513 13.3463 6.63608C13.3463 3.67085 12.0968 2.49235 9.28803 2.49235L9.28803 2.49235Z" fill="#7F8E76" fill-rule="evenodd" transform="translate(0 8)" />
    <path d="M12.1366 4.6084C12.1366 4.87721 11.8578 5.06166 11.5955 4.97827C10.8781 4.7502 9.97247 4.5619 8.8978 4.5619C6.5557 4.5619 5.26876 5.81641 5.26876 8.93447L5.26876 20.7194L3.82417 20.7194C1.48285 20.7194 0 19.5789 0 17.45L0 8.02133C0 3.91562 2.22504 0 7.76617 0C11.0042 0 12.1366 1.7875 12.1366 3.34462L12.1366 4.6084L12.1366 4.6084Z" fill="#7F8E76" fill-rule="evenodd" transform="translate(21.968 12.165)" />
    <path d="M1.52186 1.40659C2.22426 0.609018 3.16156 0 3.98024 0L4.79971 0C5.01522 0 5.18993 0.170203 5.18993 0.380158L5.18993 4.6387L12.0976 4.6387C12.3131 4.6387 12.4878 4.8089 12.4878 5.01885L12.4878 6.72957C12.4878 7.79324 11.5123 9.16257 9.36607 9.16257L5.18993 9.16257L5.18993 17.1847C5.18993 19.8458 6.4004 20.8722 8.50758 20.8722C10.1848 20.8722 11.6684 20.6449 12.4878 20.1507L12.4878 21.9754C12.4878 24.0663 10.9269 25.3968 7.88323 25.3968C2.57623 25.3968 0 22.5829 0 17.7929L0 5.4758C0 3.46021 0.390221 2.69989 1.52186 1.40659L1.52186 1.40659Z" fill="#7F8E76" fill-rule="evenodd" transform="translate(67.222 7.603)" />
    <path d="M-20.2588 4.53037C-21.9367 4.53037 -23.3025 3.1618 -23.3025 1.52712C-23.3025 -0.107557 -21.9367 -1.4381 -20.2588 -1.4381C-18.5808 -1.4381 -17.1752 -0.107557 -17.1752 1.52712C-17.1752 3.1618 -18.5808 4.53037 -20.2588 4.53037L-20.2588 4.53037ZM-16.5516 26.6944C-20.6092 26.6944 -22.8334 24.4522 -22.8334 20.3077L-22.8334 6.43193L-21.3521 6.43193C-19.0093 6.43193 -17.6052 7.64843 -17.6052 10.2335L-17.6052 19.8135C-17.6052 21.8671 -16.7077 22.5134 -14.4039 22.5134L-13.8186 22.5134C-13.6031 22.5134 -13.4283 22.6836 -13.4283 22.8935L-13.4283 23.6158C-13.4283 25.8208 -14.3266 26.6944 -16.5516 26.6944L-16.5516 26.6944Z" fill="#7F8E76" fill-rule="evenodd" transform="translate(106.133 6)" />
    <path d="M9.28725 20.9855C4.09731 20.9855 0 17.6409 0 11.6716L0 0L0.975548 0C3.98025 0 5.30777 1.25375 5.30777 3.64951L5.30777 11.1766C5.30777 14.941 7.18084 16.4616 9.5604 16.4616C11.7066 16.4616 13.2293 15.017 13.2293 11.5195L13.2293 0.380158C13.2293 0.170202 13.4039 0 13.6195 0L14.165 0C17.2087 0 18.4972 1.25375 18.4972 3.64951L18.4972 11.3302C18.4972 17.7169 15.4137 20.9855 9.28725 20.9855L9.28725 20.9855Z" fill="#7F8E76" fill-rule="evenodd" transform="translate(95.824 11.405)" />
    <path d="M29.2704 20.9847C26.4218 20.9847 25.2886 19.6929 25.2886 17.2592L25.2886 9.35189C25.2886 5.96924 23.7277 4.52389 21.4262 4.52389C19.3183 4.52389 17.8744 5.96848 17.8744 8.78165L17.8744 20.6053C17.8744 20.8153 17.6998 20.9855 17.4842 20.9855L16.4689 20.9855C14.1674 20.9855 12.6447 19.6937 12.6447 17.2599L12.6447 9.35265C12.6447 5.97001 11.0456 4.52464 8.7425 4.52464C6.71336 4.52464 5.19071 6.08329 5.19071 8.89646L5.19071 20.9855L3.78671 20.9855C1.6405 20.9855 0 19.6169 0 17.2599L0 9.31463C0 3.72556 3.00626 0 9.36685 0C12.0984 0 14.2446 1.21727 15.7657 3.19409C16.9762 1.2933 19.2792 0 21.8157 0C26.6536 0 30.5558 2.85119 30.5558 8.6676L30.5558 20.9855L29.2704 20.9855L29.2704 20.9847L29.2704 20.9847Z" fill="#7F8E76" fill-rule="evenodd" transform="translate(117.444 11.405)" />
    <path d="M14.8157 8.7761C14.7439 7.56957 13.7188 6.62691 12.4783 6.62691L9.25847 6.62691C9.2516 6.62691 9.24598 6.62147 9.24598 6.61476C9.24598 2.96752 6.34821 0 2.78471 0C-0.780342 0 -3.67812 2.96752 -3.67812 6.61476C-3.67812 6.62147 -3.6837 6.62691 -3.6906 6.62691L-6.9142 6.62691C-8.15477 6.62691 -9.17999 7.56961 -9.25163 8.77618L-10.5089 29.9548C-10.5866 31.264 -9.51772 32.3674 -8.17149 32.3674L13.7362 32.3674C15.0824 32.3674 16.1513 31.264 16.0736 29.9547L14.8157 8.7761L14.8157 8.7761ZM-2.1383 6.62691C-2.14517 6.62691 -2.15079 6.62147 -2.15079 6.61476C-2.15079 3.78866 0.0625381 1.48871 2.78394 1.48871C5.50455 1.48871 7.71788 3.78866 7.71788 6.61476C7.71788 6.62147 7.71227 6.62691 7.7054 6.62691L-2.1383 6.62691L-2.1383 6.62691Z" fill="#7F8E76" fill-rule="evenodd" transform="translate(47.882 0)" />
    <path d="M-1.49471 9.56483L-4.70002 10.7646C-3.38416 13.041 -0.524624 13.7222 2.35364 12.6456C4.1293 11.9819 6.20184 10.8665 7.3736 9.2664C7.57143 8.99619 8.03197 9.02333 8.15427 9.33316L8.42157 10.0104C9.38619 12.4578 8.41533 14.9798 3.02326 16.9969C-1.8584 18.8224 -8.11445 16.8471 -10.4222 10.9904C-12.9407 4.60225 -10.5135 -0.907022 -4.90371 -3.00626C-0.823532 -4.53221 4.08544 -3.11118 5.8906 1.46745C7.2751 4.98088 4.98997 7.13942 -1.49471 9.56483L-1.49471 9.56483ZM-3.77364 1.13216C-6.14149 2.01793 -7.03978 4.51177 -6.28197 6.75394L-6.06657 7.40553L-3.88057 6.58895C0.745926 4.85771 1.60675 3.96662 1.07605 2.6163C0.319805 0.701063 -1.51423 0.287451 -3.77364 1.13216L-3.77364 1.13216Z" fill="#FFFFFF" fill-rule="evenodd" transform="translate(51.992 15)" />
  </g>
</svg>