<svg xmlns="http://www.w3.org/2000/svg" width="49.643" height="62.373" fill="none"><path fill="#FFF" fill-rule="evenodd" d="M47.1401 15.485c-.0918-1.5869-1.4054-2.8267-2.995-2.8267h-7.2723c-.0128 0-.0232-.0104-.0232-.0232C36.8496 5.66837 31.4572 9.5e-7 24.826 9.5e-7 18.1918 9.5e-7 12.7994 5.66837 12.7994 12.6351c0 .0128-.0104.0232-.0232.0232H5.49672c-1.58957 0-2.90322 1.2399-2.995 2.8268L.00510775 58.6529C-.0944881 60.375 1.27515 61.8261 3.0001 61.8261H46.643c1.725 0 3.0946-1.4512 2.995-3.1733L47.1401 15.485Zm-31.4753-2.8267c-.0128 0-.0232-.0104-.0232-.0232 0-5.39824 4.1187-9.79147 9.1829-9.79147 5.0628 0 9.1815 4.39323 9.1815 9.79147 0 .0128-.0104.0232-.0232.0232h-18.318Z"/><path fill="#7F8E76" fill-rule="evenodd" d="m24.5121 46.9225-5.9647 2.2917c2.4486 4.3482 7.7699 5.6495 13.126 3.593 3.4569-1.3264 7.5183-3.5969 9.6326-6.8839.2362-.3672.8189-.3349.9756.0727l.6835 1.7776c1.795 4.675-.0116 9.4923-10.0456 13.3452-9.0842 3.487-20.7259-.2861-25.02037-11.4732-4.68659-12.2023-.1699-22.72571 10.26927-26.73553 7.5927-2.91478 16.7277-.20041 20.0869 8.54538 2.5763 6.71115-1.676 10.83425-13.7432 15.46705Zm-4.2408-16.10749c-4.40625 1.69189-6.07786 6.45549-4.66767 10.73829l.40084 1.2447 4.06793-1.5598c8.6092-3.3069 10.2111-5.009 9.2236-7.5883-1.4073-3.65835-4.8202-4.4484-9.0247-2.83489Z"/></svg>