<svg width="20" height="20" viewBox="0 0 20 20" fill="none" xmlns="http://www.w3.org/2000/svg">
  <g>
    <g>
      <g>
        <path d="M0 0.75C0 0.335786 0.335786 0 0.75 0L5.75 0C6.16421 0 6.5 0.335786 6.5 0.75C6.5 1.16421 6.16421 1.5 5.75 1.5L0.75 1.5C0.335786 1.5 0 1.16421 0 0.75L0 0.75Z" fill="#292D32" fill-rule="evenodd" transform="translate(12.583 4.667)" />
        <path d="M0 0.75C0 0.335786 0.335786 0 0.75 0L4.08333 0C4.49755 0 4.83333 0.335786 4.83333 0.75C4.83333 1.16421 4.49755 1.5 4.08333 1.5L0.75 1.5C0.335786 1.5 0 1.16421 0 0.75L0 0.75Z" fill="#292D32" fill-rule="evenodd" transform="translate(0.917 4.667)" />
        <path d="M3.66667 0C1.64162 0 0 1.64162 0 3.66667C0 5.69171 1.64162 7.33333 3.66667 7.33333C5.69171 7.33333 7.33333 5.69171 7.33333 3.66667C7.33333 1.64162 5.69171 0 3.66667 0L3.66667 0ZM1.5 3.66667C1.5 2.47005 2.47005 1.5 3.66667 1.5C4.86328 1.5 5.83333 2.47005 5.83333 3.66667C5.83333 4.86328 4.86328 5.83333 3.66667 5.83333C2.47005 5.83333 1.5 4.86328 1.5 3.66667L1.5 3.66667Z" fill="#292D32" fill-rule="evenodd" transform="translate(4.667 1.75)" />
        <path d="M0 0.75C0 0.335786 0.335786 0 0.75 0L4.08333 0C4.49755 0 4.83333 0.335786 4.83333 0.75C4.83333 1.16421 4.49755 1.5 4.08333 1.5L0.75 1.5C0.335786 1.5 0 1.16421 0 0.75L0 0.75Z" fill="#292D32" fill-rule="evenodd" transform="translate(14.25 13.833)" />
        <path d="M0 0.75C0 0.335786 0.335786 0 0.75 0L5.75 0C6.16421 0 6.5 0.335786 6.5 0.75C6.5 1.16421 6.16421 1.5 5.75 1.5L0.75 1.5C0.335786 1.5 0 1.16421 0 0.75L0 0.75Z" fill="#292D32" fill-rule="evenodd" transform="translate(0.917 13.833)" />
        <path d="M3.66667 0C1.64162 0 0 1.64162 0 3.66667C0 5.69171 1.64162 7.33333 3.66667 7.33333C5.69171 7.33333 7.33333 5.69171 7.33333 3.66667C7.33333 1.64162 5.69171 0 3.66667 0L3.66667 0ZM1.5 3.66667C1.5 2.47005 2.47005 1.5 3.66667 1.5C4.86328 1.5 5.83333 2.47005 5.83333 3.66667C5.83333 4.86328 4.86328 5.83333 3.66667 5.83333C2.47005 5.83333 1.5 4.86328 1.5 3.66667L1.5 3.66667Z" fill="#292D32" fill-rule="evenodd" transform="translate(8 10.917)" />
      </g>
    </g>
  </g>
</svg>