<svg width="60" height="66.884" viewBox="0 0 60 66.884" fill="none" xmlns="http://www.w3.org/2000/svg">
  <g>
    <g>
      <path d="M24.5682 0C25.9573 1.02476 26.6697 2.39903 26.9133 3.99972C26.9631 4.32277 27.0487 4.56638 27.3535 4.77159C27.8451 5.10391 28.1371 5.58981 28.3579 6.11277C28.442 6.3127 28.4292 6.50866 28.3765 6.70722C28.2083 7.34669 28.0374 7.98616 27.8664 8.6257C27.7353 9.11952 27.4376 9.35519 27.0443 9.27707C26.6169 9.19232 26.4417 8.86267 26.5685 8.35825C26.7067 7.80879 26.8463 7.25804 27.0073 6.71385C27.0715 6.49807 27.0315 6.3246 26.9076 6.14587C26.5187 5.57657 25.9459 5.30647 25.2407 5.25616C23.8217 5.15289 22.4853 5.51433 21.2729 6.11807C20.3496 6.57749 19.6259 6.56163 18.7112 6.11013C17.5073 5.51699 16.188 5.15952 14.7833 5.25484C14.0623 5.30383 13.4768 5.57789 13.0821 6.16308C12.9667 6.33519 12.9397 6.50203 12.9924 6.69799C13.5565 8.77265 14.1008 10.8513 14.3743 12.9815C14.3943 13.1391 14.4584 13.1947 14.618 13.1828C14.6689 13.1791 14.7198 13.1799 14.7707 13.1807C14.7925 13.1811 14.8142 13.1814 14.8359 13.1814C15.5202 13.1814 16.2043 13.1813 16.8884 13.1812C19.6574 13.1808 22.4258 13.1804 25.1951 13.1868C25.49 13.1881 25.6154 13.1483 25.6467 12.8333C25.7065 12.2321 25.8362 11.635 25.9545 11.0392C26.0385 10.6156 26.3648 10.3892 26.7381 10.4647C27.127 10.5428 27.3549 10.8565 27.2495 11.2709C26.889 12.6839 26.8954 14.1163 26.9018 15.549C26.9029 15.7864 26.9039 16.0237 26.9033 16.261C26.9033 16.4278 26.9347 16.5748 27.0259 16.7218C30.4395 22.1712 34.2563 27.3506 38.9037 31.9712C39.1516 32.2175 39.4109 32.4532 39.6617 32.6968C40.1361 33.1549 40.1147 33.4858 39.5776 33.8672C38.3666 34.7264 37.0715 35.4665 35.7323 36.1378C35.7072 36.1504 35.6821 36.1623 35.6574 36.174C35.4596 36.2676 35.293 36.3466 35.426 36.6621C35.5499 36.9573 35.2749 37.1758 35.0043 37.3413C33.4755 38.2773 31.8399 39.0188 30.136 39.6331C27.5288 40.5744 24.8332 41.1689 22.0393 41.3569C22.0278 41.3578 22.0159 41.3581 22.0042 41.3584C21.9451 41.3598 21.8874 41.3612 21.8683 41.4363L18.0359 41.4363C17.8406 41.3154 17.6198 41.3094 17.402 41.3035C17.3242 41.3014 17.2468 41.2993 17.1711 41.292C15.0141 41.0841 12.9211 40.6154 10.871 39.972C10.3965 39.8224 10.1971 39.5059 10.3367 39.1498C10.482 38.7804 10.8154 38.652 11.3055 38.8069C13.0522 39.3563 14.8331 39.7642 16.661 39.9932C21.0377 40.5413 25.2706 39.9945 29.388 38.5646C30.8142 38.0695 32.1847 37.467 33.5041 36.7587C33.7405 36.6316 33.8004 36.5575 33.6166 36.3258C29.8525 31.5979 26.8919 26.4423 24.2733 21.1068C24.2491 21.0578 24.2249 21.0087 24.2021 20.9598C24.0239 20.5467 24.1294 20.225 24.4955 20.07C24.8631 19.9139 25.2051 20.0515 25.4088 20.4514C25.859 21.3385 26.2879 22.2361 26.7495 23.1179C28.9221 27.2605 31.3199 31.2801 34.2221 35.0296C34.4201 35.2851 34.5526 35.3474 34.8675 35.1832C35.9417 34.6232 36.9989 34.0406 38.0218 33.4012C38.2355 33.2674 38.3196 33.1853 38.0931 32.9629C33.3843 28.3369 29.5305 23.1297 26.077 17.6525C25.9103 17.3877 25.7493 17.2779 25.4088 17.2792C21.8099 17.2924 18.2111 17.2924 14.6123 17.2792C14.2547 17.2779 14.0837 17.3943 13.9113 17.6711C10.7783 22.6624 7.27927 27.4115 3.13903 31.7369C2.72443 32.1698 2.29844 32.5935 1.86675 33.0132C1.72428 33.1509 1.70433 33.225 1.89525 33.3468C2.98658 34.0353 4.11638 34.6616 5.27468 35.2468C5.52621 35.3734 5.60748 35.2587 5.69748 35.1318C5.71097 35.1127 5.72465 35.0934 5.73913 35.0746C7.33053 33.0331 8.7638 30.9001 10.1002 28.7076C11.7201 26.0504 13.2004 23.3271 14.551 20.5414C14.7804 20.0687 15.0981 19.9099 15.4885 20.0661C15.8945 20.229 15.9943 20.5771 15.7563 21.0617C13.1163 26.4185 10.1529 31.6032 6.36743 36.351C6.21784 36.5376 6.22354 36.621 6.44437 36.7375C7.1624 37.1149 7.89047 37.4737 8.6356 37.8033C9.12 38.0178 9.281 38.3502 9.08867 38.701C8.90347 39.0399 8.53873 39.1247 8.07567 38.9221C7 38.4521 5.95285 37.9358 4.96409 37.3214C4.64495 37.1228 4.44407 36.8779 4.61646 36.5085C4.70496 36.3191 4.57931 36.273 4.46588 36.2314C4.44053 36.2221 4.4158 36.213 4.3942 36.2026C3.12763 35.5738 1.90522 34.88 0.744074 34.0936C0.638646 34.0221 0.534642 33.9492 0.432061 33.8751C-0.110756 33.4793 -0.1421 33.1602 0.33803 32.7073C1.37665 31.7263 2.37253 30.7095 3.32709 29.6583C6.98147 25.6308 10.1358 21.2815 12.9781 16.7297C13.0878 16.5549 13.0893 16.3762 13.1035 16.1882C13.3272 13.1007 12.602 10.131 11.7415 7.19051C11.4836 6.30738 11.703 5.61496 12.347 5.07346C12.8841 4.62066 13.0679 4.11888 13.1933 3.49528C13.4753 2.09187 14.2162 0.912218 15.4258 0.00661999L15.9487 0.00661999C16.0627 0.135045 16.2023 0.25023 16.2863 0.394543C16.889 1.41268 17.4175 2.47185 17.5843 3.62503C17.674 4.24995 17.929 4.55578 18.5687 4.71333C19.0659 4.83646 19.5261 5.23365 20.0034 5.23365C20.4807 5.23365 20.9409 4.82985 21.4381 4.71599C22.0921 4.56505 22.3043 4.23671 22.4211 3.62901C22.6705 2.32357 23.1663 1.08301 24.0496 0.00794373C24.2191 0 24.3929 0 24.5682 0L24.5682 0ZM24.5084 1.6748C24.1322 2.38843 23.8715 3.09278 23.6977 3.82758C23.6521 4.02088 23.702 4.08708 23.9342 4.0606C24.4072 4.00764 24.883 3.956 25.3589 4.0328C25.5948 4.07077 25.5674 3.95004 25.5393 3.8269C25.5371 3.81697 25.5348 3.80702 25.5327 3.79713C25.366 3.0385 25.054 2.34076 24.5084 1.6748L24.5084 1.6748ZM15.4942 1.67615C14.9485 2.32887 14.6493 3.01865 14.4755 3.75875C14.4716 3.77526 14.466 3.79365 14.4601 3.81289C14.4248 3.92792 14.3802 4.07365 14.645 4.03282C15.1209 3.96 15.5967 4.00898 16.0683 4.06194C16.3048 4.08842 16.3447 4.02222 16.3006 3.82893C16.1324 3.0928 15.8688 2.39109 15.4942 1.67615L15.4942 1.67615ZM20.0119 16.0425C20.4481 16.0425 20.8843 16.0422 21.3205 16.0418L21.3206 16.0418C22.6239 16.0408 23.927 16.0398 25.2293 16.0478C25.4871 16.0491 25.5926 16.0001 25.5741 15.7393C25.5499 15.3911 25.5513 15.039 25.5741 14.6894C25.5883 14.4498 25.4914 14.4034 25.2535 14.4034C21.7459 14.41 18.2382 14.41 14.7305 14.4034C14.5111 14.4034 14.4213 14.4471 14.4327 14.6682C14.4513 15.0178 14.457 15.3699 14.4313 15.7181C14.4114 15.9895 14.5154 16.0491 14.7932 16.0478C16.0966 16.0398 17.4 16.0408 18.7034 16.0418C19.1396 16.0422 19.5758 16.0425 20.0119 16.0425L20.0119 16.0425Z" fill="#7F8E76" fill-rule="evenodd" />
    </g>
  </g>
</svg>