<?xml version="1.0" encoding="utf-8"?>
<svg width="22.21" height="22.21" viewBox="0 0 22.21 22.21" fill="none" xmlns="http://www.w3.org/2000/svg">
  <g>
    <g>
      <g>
        <path d="M8.7325 -0.0846619C3.86291 -0.0846619 -0.0846619 3.86291 -0.0846619 8.7325C-0.0846619 13.6021 3.86291 17.5496 8.7325 17.5496C13.6021 17.5496 17.5496 13.6021 17.5496 8.7325C17.5496 3.86291 13.6021 -0.0846619 8.7325 -0.0846619L8.7325 -0.0846619ZM1.71633 8.7325C1.71633 4.85757 4.85757 1.71633 8.7325 1.71633C12.6075 1.71633 15.7487 4.85757 15.7487 8.7325C15.7487 12.6075 12.6075 15.7487 8.7325 15.7487C4.85757 15.7487 1.71633 12.6075 1.71633 8.7325L1.71633 8.7325Z" fill="#545454" fill-rule="evenodd" transform="translate(0.851 0.851)" />
        <path d="M1.53724 0.263748C1.18558 -0.0879164 0.615414 -0.0879164 0.263748 0.263748C-0.0879164 0.615414 -0.0879164 1.18558 0.263748 1.53724L1.93042 3.20391C2.28208 3.55557 2.85225 3.55557 3.20391 3.20391C3.55557 2.85225 3.55557 2.28208 3.20391 1.93042L1.53724 0.263748L1.53724 0.263748Z" fill="#545454" fill-rule="evenodd" transform="translate(15.766 15.766)" />
      </g>
    </g>
  </g>
</svg>