<svg xmlns="http://www.w3.org/2000/svg" width="19.048" height="19.048" fill="none"><path fill="#FFF" fill-rule="evenodd" d="M19.0476 19.0476h-5.6762c-.0114-.0215-.0207-.0445-.0347-.0645-1.6897-2.4029-3.38055-4.805-5.0671-7.21-.08329-.1186-.12059-.0881-.19689-.0012-1.27244 1.4483-2.54848 2.8936-3.82177 4.3411-.8596.9771-1.71644 1.9563-2.57455 2.9346H.038361c-.0015859-.0915.0574634-.1463.115263-.1999.019446-.0181.03875-.036.055556-.0551 2.36919-2.6932 4.7405-5.385 7.11435-8.0744.08265-.0935.0977-.1525.01992-.2626C5.0993 7.27512 2.85897 4.09236.62075.908171.409878.608275.18205.319139 0 .0002021h5.67618c.01844.031873.03434.0656111.05553.0956214C7.32544 2.3615 8.91937 4.62696 10.5142 6.89201c.0239.03395.0383.0803.0943.08817.0197-.02132.0413-.04346.0619-.06685 1.9951-2.26443 3.9904-4.52907 5.9843-6.794738.0075-.008478.0168-.016242.0263-.0241238.0281-.0232898.0575-.0476146.0426-.0944682h1.6761c.0241.0582546-.013.085594-.0479.111364-.0127.009387-.0252.018566-.0343.028955-2.2819 2.594341-4.5652 5.187641-6.853 7.777211-.1009.11404-.1058.18276-.017.30839 2.1903 3.10308 4.3766 6.20898 6.5597 9.31708.3508.499.7208.9853 1.0404 1.5046ZM2.27022 1.23456c.32171.44932.62245.86906.92297 1.28878C6.81766 7.58701 10.4423 12.6503 14.064 17.7156c.0767.1072.1541.1529.2914.1515.4951-.0049.9901-.0045 1.4852-.0041.2412.0001.4825.0003.7238-.0001.0114 0 .0229.0007.0347.0014.0432.0027.0893.0056.1385-.026-.0456-.066-.0859-.1264-.1283-.1856-2.9526-4.1249-5.9054-8.24955-8.85809-12.37441-.93335-1.3039-1.86649-2.608-2.80005-3.91189-.00324-.00452-.00643-.00903-.00961-.01352-.04561-.06441-.08683-.12262-.19363-.12184-.61749.00488-1.23498.00437-1.87093.00385-.20023-.00016-.4023-.00033-.60677-.00033Z"/></svg>