<svg width="60" height="62.154" viewBox="0 0 60 62.154" fill="none" xmlns="http://www.w3.org/2000/svg">
  <g>
    <g>
      <path d="M29.7215 1.05492C29.9124 0.625849 29.8459 0.282594 29.4701 0.0014793L29.47 0.0014793C29.3072 0.0014793 29.146 0.0014793 28.9818 0C28.7554 0.19678 28.6282 0.448303 28.5379 0.7309C28.4195 1.10227 28.2687 1.46327 28.1533 1.83464C28.0837 2.05805 27.9979 2.1054 27.7523 2.04918C26.0035 1.65266 24.2325 1.52985 22.4511 1.76954C17.2283 2.47233 13.2719 5.10149 10.5658 9.62153C10.4504 9.81533 10.4149 10.0151 10.4297 10.2385C10.4978 11.2061 10.554 12.1752 10.6191 13.1443C10.6679 13.8723 11.0481 14.3591 11.748 14.5484C13.6817 15.0722 15.617 15.59 17.5552 16.1005C18.3275 16.3031 18.8365 16.096 19.2937 15.4317C19.5082 15.1181 19.7227 14.8029 19.9861 14.4182C20.0217 14.9005 20.0542 15.2853 20.0779 15.6714C20.1223 16.4008 20.4966 16.8802 21.1979 17.0755C21.8593 17.2589 22.5191 17.4469 23.1864 17.6022C23.4779 17.6703 23.5355 17.7723 23.4571 18.0623C22.3785 22.0468 21.3089 26.0342 20.248 30.0245C20.1755 30.2953 20.0705 30.3781 19.7879 30.3751C18.0745 30.3545 16.3627 30.3574 14.6494 30.3545C14.1493 30.3545 13.8593 30.5838 13.8593 30.9655C13.8608 31.3472 14.1478 31.5677 14.6523 31.5691C18.4681 31.5825 22.2853 31.5899 26.1011 31.6135C26.9045 31.618 27.5585 31.3591 28.1192 30.7747C29.4641 29.3735 30.8342 27.9975 32.1924 26.6097C32.7088 26.0845 33.3272 25.7708 34.0522 25.6273C34.8634 25.4662 35.5863 25.7177 36.313 25.9705C36.5074 26.0382 36.7021 26.1059 36.8989 26.1659C36.853 26.3286 36.7302 26.3996 36.6385 26.4928C34.0937 29.0584 31.5414 31.618 29.0025 34.1909C28.5261 34.6733 27.989 34.8907 27.3099 34.8893C23.9989 34.8804 20.6888 34.8815 17.3782 34.8826C16.2788 34.883 15.1793 34.8833 14.0797 34.8833C13.317 34.8833 12.5542 34.8829 11.7913 34.8825C9.34453 34.8812 6.89727 34.8798 4.45085 34.8923C4.10019 34.8937 4.03657 34.7931 4.04693 34.4676C4.10167 32.8149 5.35189 31.5647 7.00307 31.5588C7.9368 31.5561 8.87113 31.559 9.80568 31.562C10.3682 31.5638 10.9309 31.5656 11.4935 31.5662C11.9685 31.5677 12.2363 31.3472 12.2377 30.9655C12.2392 30.5838 11.9743 30.3559 11.4979 30.3545C11.1475 30.3531 10.7972 30.3513 10.447 30.3494C9.24577 30.343 8.04527 30.3366 6.84473 30.3515C5.04563 30.3737 3.52169 31.5884 3.06451 33.3209C2.90472 33.9246 2.83666 34.5386 2.84257 35.1615C2.84849 35.7593 3.17103 36.0877 3.76581 36.0966C4.07076 36.1007 4.3757 36.0998 4.70023 36.0989C4.84492 36.0985 4.9935 36.0981 5.14771 36.0981C4.75563 36.9607 4.39462 37.7803 4.01142 38.5896C3.76729 39.1045 3.63117 39.6239 3.83239 40.2216L3.40629 40.2216C3.10111 40.2216 2.79578 40.2218 2.49033 40.2219C1.87911 40.2223 1.26746 40.2226 0.6558 40.2216C0.370247 40.2216 0.157191 40.3429 0.0491841 40.6063C-0.0529049 40.8533 0.00775693 41.0797 0.19566 41.2735C0.210907 41.2893 0.231926 41.3005 0.253084 41.3118C0.299678 41.3367 0.346947 41.362 0.334737 41.4363L38.2083 41.4363C38.4405 41.2069 38.6595 40.9658 38.516 40.6077C38.3607 40.2216 38.0189 40.2171 37.6682 40.2186C36.7942 40.224 35.9202 40.2231 35.0461 40.2223C34.7202 40.2219 34.3944 40.2216 34.0685 40.2216L32.2605 40.2216C32.4854 39.5854 32.3004 39.0468 32.0504 38.5097C31.5074 37.3394 30.9881 36.1587 30.4347 34.9929C30.306 34.7206 30.3237 34.5667 30.5442 34.3463C33.0727 31.8207 35.588 29.2833 38.1047 26.7473C38.7157 26.1303 38.553 25.4423 37.7363 25.1642C37.2391 24.9955 36.742 24.8328 36.2449 24.6656C34.3171 24.0175 32.6422 24.4259 31.2189 25.8744C29.8873 27.2311 28.5527 28.5864 27.23 29.9505C26.9385 30.2509 26.6101 30.3989 26.1913 30.3959C24.7089 30.3825 23.2249 30.3767 21.7423 30.3796C21.4923 30.3796 21.4095 30.3397 21.4834 30.0659C22.5413 26.1451 23.5903 22.2229 24.6349 18.2991C24.7 18.0535 24.7961 18.0327 25.0255 18.1008C25.6824 18.2947 26.3482 18.4589 27.0125 18.6305C27.7656 18.8258 28.2909 18.6335 28.7303 18.0002C28.9551 17.6747 29.1712 17.3448 29.4405 16.9453C29.4789 17.4158 29.5129 17.7871 29.5381 18.1585C29.5913 18.9752 29.9391 19.4191 30.7277 19.6321C32.6363 20.1485 34.5449 20.6589 36.455 21.1665C37.2185 21.3691 37.7555 21.1679 38.2023 20.5125C38.7409 19.7224 39.2676 18.9235 39.8047 18.1334C39.9393 17.9366 40 17.7339 40 17.4927C40 16.7219 39.9438 15.9584 39.8328 15.1965C39.4319 12.4637 38.3858 10.0033 36.7183 7.8046C36.6 7.64927 36.4595 7.53387 36.2538 7.51907C36.0008 7.50133 35.8011 7.5916 35.6767 7.812C35.5155 8.0976 35.6013 8.3506 35.7877 8.59473C37.1474 10.3791 38.044 12.3749 38.4953 14.5706C38.6477 15.3133 38.7527 16.0635 38.7675 16.8551C36.236 16.1759 33.7548 15.5131 31.2766 14.8458C30.6268 14.6715 30.628 14.6627 30.7159 14.0298C30.7183 14.0128 30.7207 13.9953 30.7232 13.9773C31.0457 11.6589 31.1227 9.33153 30.9525 6.99827C30.8904 6.13569 30.7913 5.27459 30.7069 4.39131C31.1981 4.61472 31.6346 4.87955 32.0652 5.15327C32.6807 5.54387 33.2592 5.9833 33.8066 6.46415C34.0167 6.65058 34.2534 6.70533 34.5153 6.58992C34.7343 6.49375 34.8423 6.30585 34.8571 6.07947C34.8749 5.81167 34.7091 5.63857 34.5168 5.47285C33.0417 4.20488 31.392 3.23577 29.5573 2.58773C29.2777 2.4886 29.2007 2.39391 29.328 2.11132C29.4819 1.76954 29.5692 1.39817 29.7215 1.05492L29.7215 1.05492ZM11.9951 9.67768C14.6509 5.18134 20.2555 2.38054 25.5345 2.95165C23.9307 4.72416 22.5902 6.61946 21.5057 8.69528C21.0204 9.62588 20.581 10.5757 20.2155 11.5597C20.1386 11.7683 20.0631 11.8541 19.8101 11.7845C17.2564 11.0862 14.6983 10.4042 12.1416 9.71762C12.0957 9.70582 12.0484 9.69248 11.9951 9.67768L11.9951 9.67768ZM29.396 4.04656C29.6772 5.79244 29.8266 7.54866 29.8192 9.3182C29.8251 10.9117 29.7156 12.4948 29.4848 14.072C29.4508 14.3117 29.396 14.3487 29.1638 14.2851C26.6352 13.5971 24.1052 12.9165 21.5692 12.2521C21.2999 12.1811 21.297 12.0968 21.3828 11.8778C22.6434 8.68493 24.4514 5.84274 26.8142 3.35118C26.9725 3.18399 27.1146 3.13812 27.3424 3.19434C27.9416 3.34378 28.5379 3.50653 29.1223 3.70923C29.3043 3.77137 29.3664 3.86162 29.396 4.04656L29.396 4.04656ZM11.8367 13.1133C11.7908 12.3765 11.7435 11.6396 11.6932 10.8584C14.3076 11.5597 16.885 12.2492 19.5038 12.9505C19.0658 13.603 18.6545 14.2155 18.2432 14.8281C18.1559 14.9597 18.0449 14.9819 17.894 14.9405C15.9736 14.4212 14.0531 13.9063 12.1312 13.3914C11.9817 13.3515 11.8486 13.3027 11.8367 13.1133L11.8367 13.1133ZM21.152 13.6175C21.1409 13.4877 21.1299 13.3596 21.3 13.4298C22.3372 13.7095 23.3226 13.9773 24.3094 14.2391C25.749 14.6238 27.1901 15.0115 28.6326 15.3873C28.8886 15.4539 28.9552 15.5219 28.7762 15.766C28.4255 16.2425 28.1 16.7381 27.7834 17.2382C27.6473 17.4542 27.5052 17.5193 27.2522 17.4497C25.3865 16.9408 23.5164 16.4392 21.6462 15.9465C21.4006 15.8814 21.2941 15.7749 21.2837 15.5086C21.26 14.8901 21.1994 14.2731 21.155 13.6547C21.1541 13.6424 21.153 13.63 21.152 13.6175L21.152 13.6175ZM30.7542 18.1586C30.7099 17.4336 30.6521 16.7086 30.5959 15.923C32.9173 16.5458 35.1899 17.151 37.4595 17.7665C37.7629 17.8493 38.2082 17.8182 38.3162 18.0728C38.3641 18.1863 38.2053 18.3892 38.0487 18.5892C37.9829 18.6734 37.9174 18.757 37.8679 18.8332C37.6534 19.1602 37.427 19.4783 37.2199 19.8082C37.1 19.9976 36.9595 20.048 36.7449 19.9902C34.8378 19.4754 32.9291 18.9634 31.0205 18.4544C30.8578 18.4101 30.7661 18.342 30.7542 18.1586L30.7542 18.1586ZM30.9881 39.1179C31.0591 39.2762 31.1138 39.4419 31.1627 39.5721C31.1271 39.871 31.0177 40.0736 30.7632 40.1742C30.5057 40.2764 30.2823 40.2127 30.1033 40.0174C30.0249 39.9316 29.9731 39.8162 29.9228 39.7067C29.402 38.5704 28.8915 37.4297 28.3589 36.2993C28.2479 36.0641 28.2879 35.9782 28.5305 35.928C28.6593 35.9013 28.7821 35.8332 28.9019 35.7741L28.9052 35.7724C29.3591 35.5491 29.3596 35.5489 29.5825 36.0374C30.0515 37.0642 30.522 38.0896 30.9881 39.1179L30.9881 39.1179ZM7.47147 36.0976C7.58389 36.0971 7.7004 36.0966 7.82272 36.0966C7.23238 37.3912 6.67758 38.6222 6.1094 39.8458C5.94666 40.1949 5.61968 40.3044 5.30897 40.1609C4.99234 40.0144 4.86214 39.7008 5.01602 39.353C5.47172 38.3233 5.94518 37.3039 6.40236 36.2756C6.46894 36.1232 6.56363 36.0906 6.71305 36.0936C6.95811 36.0999 7.20314 36.0988 7.47147 36.0976L7.47147 36.0976ZM27.0317 36.2801C27.6161 37.5762 28.205 38.8708 28.8131 40.2112L18.7728 40.2112C19.1294 38.8841 19.4845 37.5776 19.8278 36.2668C19.8722 36.101 19.9624 36.0966 20.0896 36.0966C20.5274 36.0966 20.9653 36.0967 21.4032 36.0967C23.1762 36.097 24.9498 36.0972 26.7225 36.0936C26.8778 36.0936 26.9666 36.1351 27.0317 36.2801L27.0317 36.2801ZM10.4934 40.2216L7.27832 40.2216C7.89085 38.8766 8.48712 37.585 9.06412 36.286C9.15117 36.0888 9.28364 36.0932 9.42608 36.098C9.44825 36.0987 9.47067 36.0995 9.49319 36.0995C12.2156 36.098 14.9395 36.098 17.6618 36.098L18.6161 36.098C18.2611 37.4267 17.9089 38.7213 17.5745 40.0218C17.5179 40.2421 17.3845 40.2331 17.2484 40.2238C17.2209 40.2219 17.1933 40.22 17.1662 40.22C15.4918 40.2223 13.8167 40.222 12.142 40.2217C11.5924 40.2217 11.0428 40.2216 10.4934 40.2216L10.4934 40.2216Z" fill="#7F8E76" fill-rule="evenodd" />
    </g>
  </g>
</svg>